{
  "source": "C:\\Users\\Peter\\Desktop\\stuff\\MIUN\\quantitative_research\\video_compression\\videos\\BVI-HD\\BVI-HD_CDVL_videos\\ORIG\\Boxing_1920x1080_30fps.mp4",
  "output": "C:\\Users\\Peter\\Desktop\\stuff\\MIUN\\quantitative_research\\video_compression\\compressed_videos\\BVI-HD\\hevc\\4\\Boxing_1920x1080_30fps_hevc.mp4",
  "codec": "hevc",
  "ok": "Input #0, mov,mp4,m4a,3gp,3g2,mj2, from 'C:\\Users\\Peter\\Desktop\\stuff\\MIUN\\quantitative_research\\video_compression\\videos\\BVI-HD\\BVI-HD_CDVL_videos\\ORIG\\Boxing_1920x1080_30fps.mp4':\n  Metadata:\n    major_brand     : isom\n    minor_version   : 512\n    compatible_brands: isomiso2avc1mp41\n    encoder         : Lavf54.28.101\n  Duration: 00:00:05.00, start: 0.000000, bitrate: 238363 kb/s\n  Stream #0:0[0x1](und): Video: h264 (High 4:4:4 Predictive) (avc1 / 0x31637661), yuv420p(progressive), 1920x1080, 238359 kb/s, 30 fps, 30 tbr, 30 tbn (default)\n    Metadata:\n      handler_name    : VideoHandler\n      vendor_id       : [0][0][0][0]\n[out#0/mp4 @ 00000258eeb4c580] Codec AVOption b:a (set bitrate (in bits/s)) has not been used for any stream. The most likely reason is either wrong type (e.g. a video option with no video streams) or that it is a private option of some decoder which was not actually used for any stream.\nStream mapping:\n  Stream #0:0 -> #0:0 (h264 (native) -> hevc (libx265))\nPress [q] to stop, [?] for help\n[libx265 @ 00000258ef3eb240] Unknown option: \"aq-mode.\nx265 [info]: HEVC encoder version 4.1+190-8f11c33ac\nx265 [info]: build info [Windows][GCC 15.1.0][64 bit] 10bit\nx265 [info]: using cpu capabilities: MMX2 SSE2Fast LZCNT SSSE3 SSE4.2 AVX FMA3 BMI2 AVX2\nx265 [info]: Main 10 profile, Level-4 (Main tier)\nx265 [info]: Thread pool created using 12 threads\nx265 [info]: Slices                              : 1\nx265 [info]: frame threads / pool features       : 3 / wpp(17 rows)\nx265 [info]: Coding QT: max CU size, min CU size : 64 / 8\nx265 [info]: Residual QT: max TU size, max depth : 32 / 1 inter / 1 intra\nx265 [info]: ME / range / subpel / merge         : star / 57 / 3 / 3\nx265 [info]: Keyframe min / max / scenecut / bias  : 25 / 250 / 40 / 5.00 \nx265 [info]: Lookahead / bframes / badapt        : 25 / 4 / 2\nx265 [info]: b-pyramid / weightp / weightb       : 1 / 1 / 0\nx265 [info]: References / ref-limit  cu / depth  : 4 / on / on\nx265 [info]: AQ: mode / str / qg-size / cu-tree  : 2 / 1.0 / 32 / 1\nx265 [info]: Rate Control / qCompress            : ABR-4000 kbps / 0.60\nx265 [info]: VBV/HRD buffer / max-rate / init    : 4000 / 4000 / 0.750\nx265 [info]: tools: rect limit-modes rd=4 psy-rd=2.00 rdoq=2 psy-rdoq=1.00\nx265 [info]: tools: rskip mode=1 signhide tmvp strong-intra-smoothing lslices=4\nx265 [info]: tools: deblock sao dhdr10-info\nOutput #0, mp4, to 'C:\\Users\\Peter\\Desktop\\stuff\\MIUN\\quantitative_research\\video_compression\\compressed_videos\\BVI-HD\\hevc\\4\\Boxing_1920x1080_30fps_hevc.mp4':\n  Metadata:\n    major_brand     : isom\n    minor_version   : 512\n    compatible_brands: isomiso2avc1mp41\n    encoder         : Lavf62.3.100\n  Stream #0:0(und): Video: hevc (hev1 / 0x31766568), yuv420p10le(tv, progressive), 1920x1080, q=2-31, 4000 kb/s, 30 fps, 15360 tbn (default)\n    Metadata:\n      encoder         : Lavc62.11.100 libx265\n      handler_name    : VideoHandler\n      vendor_id       : [0][0][0][0]\n    Side data:\n      cpb: bitrate max/min/avg: 4000000/0/4000000 buffer size: 4000000 vbv_delay: N/A\nframe=    0 fps=0.0 q=0.0 size=       0KiB time=N/A bitrate=N/A speed=N/A elapsed=0:00:00.50    \nframe=    0 fps=0.0 q=0.0 size=       0KiB time=N/A bitrate=N/A speed=N/A elapsed=0:00:01.02    \nframe=    0 fps=0.0 q=0.0 size=       0KiB time=N/A bitrate=N/A speed=N/A elapsed=0:00:01.54    \nframe=    0 fps=0.0 q=0.0 size=       0KiB time=N/A bitrate=N/A speed=N/A elapsed=0:00:02.05    \nframe=    0 fps=0.0 q=0.0 size=       0KiB time=N/A bitrate=N/A speed=N/A elapsed=0:00:02.57    \nframe=    0 fps=0.0 q=0.0 size=       0KiB time=N/A bitrate=N/A speed=N/A elapsed=0:00:03.08    \nframe=    0 fps=0.0 q=0.0 size=       0KiB time=N/A bitrate=N/A speed=N/A elapsed=0:00:03.60    \nframe=    0 fps=0.0 q=0.0 size=       0KiB time=N/A bitrate=N/A speed=N/A elapsed=0:00:04.12    \nframe=    0 fps=0.0 q=0.0 size=       0KiB time=N/A bitrate=N/A speed=N/A elapsed=0:00:04.63    \nframe=    0 fps=0.0 q=0.0 size=       0KiB time=N/A bitrate=N/A speed=N/A elapsed=0:00:05.15    \nframe=    0 fps=0.0 q=0.0 size=       0KiB time=N/A bitrate=N/A speed=N/A elapsed=0:00:05.67    \nframe=    0 fps=0.0 q=0.0 size=       0KiB time=N/A bitrate=N/A speed=N/A elapsed=0:00:06.20    \nframe=    0 fps=0.0 q=0.0 size=       0KiB time=N/A bitrate=N/A speed=N/A elapsed=0:00:06.77    \nframe=    0 fps=0.0 q=0.0 size=       0KiB time=N/A bitrate=N/A speed=N/A elapsed=0:00:07.32    \nframe=    0 fps=0.0 q=0.0 size=       0KiB time=N/A bitrate=N/A speed=N/A elapsed=0:00:07.86    \nframe=    0 fps=0.0 q=0.0 size=       0KiB time=N/A bitrate=N/A speed=N/A elapsed=0:00:08.38    \nframe=    0 fps=0.0 q=0.0 size=       0KiB time=N/A bitrate=N/A speed=N/A elapsed=0:00:08.90    \nframe=    1 fps=0.1 q=29.6 size=       0KiB time=-00:00:00.03 bitrate=N/A speed=N/A elapsed=0:00:09.42    \nframe=    1 fps=0.1 q=29.6 size=       0KiB time=-00:00:00.03 bitrate=N/A speed=N/A elapsed=0:00:09.92    \nframe=    1 fps=0.1 q=29.6 size=       0KiB time=-00:00:00.03 bitrate=N/A speed=N/A elapsed=0:00:10.44    \nframe=    1 fps=0.1 q=29.6 size=       0KiB time=-00:00:00.03 bitrate=N/A speed=N/A elapsed=0:00:10.97    \nframe=    2 fps=0.2 q=32.7 size=       0KiB time=00:00:00.00 bitrate=N/A speed=   0x elapsed=0:00:11.52    \nframe=    2 fps=0.2 q=32.7 size=       0KiB time=00:00:00.00 bitrate=N/A speed=   0x elapsed=0:00:12.07    \nframe=    2 fps=0.2 q=32.7 size=       0KiB time=00:00:00.00 bitrate=N/A speed=   0x elapsed=0:00:12.59    \nframe=    2 fps=0.2 q=32.7 size=       0KiB time=00:00:00.00 bitrate=N/A speed=   0x elapsed=0:00:13.11    \nframe=    2 fps=0.1 q=32.7 size=       0KiB time=00:00:00.00 bitrate=N/A speed=   0x elapsed=0:00:13.66    \nframe=    3 fps=0.2 q=34.8 size=       0KiB time=00:00:00.03 bitrate=  10.6kbits/s speed=0.00235x elapsed=0:00:14.16    \nframe=    3 fps=0.2 q=34.8 size=       0KiB time=00:00:00.03 bitrate=  10.6kbits/s speed=0.00227x elapsed=0:00:14.68    \nframe=    3 fps=0.2 q=34.8 size=       0KiB time=00:00:00.03 bitrate=  10.6kbits/s speed=0.00219x elapsed=0:00:15.22    \nframe=    3 fps=0.2 q=34.8 size=       0KiB time=00:00:00.03 bitrate=  10.6kbits/s speed=0.00212x elapsed=0:00:15.73    \nframe=    3 fps=0.2 q=34.8 size=       0KiB time=00:00:00.03 bitrate=  10.6kbits/s speed=0.00205x elapsed=0:00:16.26    \nframe=    3 fps=0.2 q=34.8 size=       0KiB time=00:00:00.03 bitrate=  10.6kbits/s speed=0.00199x elapsed=0:00:16.77    \nframe=    4 fps=0.2 q=36.1 size=       0KiB time=00:00:00.06 bitrate=   5.3kbits/s speed=0.00386x elapsed=0:00:17.29    \nframe=    4 fps=0.2 q=36.1 size=       0KiB time=00:00:00.06 bitrate=   5.3kbits/s speed=0.00374x elapsed=0:00:17.80    \nframe=    4 fps=0.2 q=36.1 size=       0KiB time=00:00:00.06 bitrate=   5.3kbits/s speed=0.00364x elapsed=0:00:18.33    \nframe=    5 fps=0.3 q=34.9 size=       0KiB time=00:00:00.10 bitrate=   3.5kbits/s speed=0.0053x elapsed=0:00:18.88    \nframe=    5 fps=0.3 q=34.9 size=       0KiB time=00:00:00.10 bitrate=   3.5kbits/s speed=0.00515x elapsed=0:00:19.41    \nframe=    5 fps=0.3 q=34.9 size=       0KiB time=00:00:00.10 bitrate=   3.5kbits/s speed=0.00501x elapsed=0:00:19.94    \nframe=    5 fps=0.2 q=34.9 size=       0KiB time=00:00:00.10 bitrate=   3.5kbits/s speed=0.00489x elapsed=0:00:20.46    \nframe=    5 fps=0.2 q=34.9 size=       0KiB time=00:00:00.10 bitrate=   3.5kbits/s speed=0.00476x elapsed=0:00:20.99    \nframe=    5 fps=0.2 q=34.9 size=       0KiB time=00:00:00.10 bitrate=   3.5kbits/s speed=0.00465x elapsed=0:00:21.51    \nframe=    6 fps=0.3 q=30.6 size=       0KiB time=00:00:00.13 bitrate=   2.6kbits/s speed=0.00605x elapsed=0:00:22.05    \nframe=    6 fps=0.3 q=30.6 size=       0KiB time=00:00:00.13 bitrate=   2.6kbits/s speed=0.00591x elapsed=0:00:22.55    \nframe=    6 fps=0.3 q=30.6 size=       0KiB time=00:00:00.13 bitrate=   2.6kbits/s speed=0.00578x elapsed=0:00:23.07    \nframe=    6 fps=0.3 q=30.6 size=       0KiB time=00:00:00.13 bitrate=   2.6kbits/s speed=0.00565x elapsed=0:00:23.60    \nframe=    7 fps=0.3 q=33.5 size=       0KiB time=00:00:00.16 bitrate=   2.1kbits/s speed=0.00691x elapsed=0:00:24.12    \nframe=    7 fps=0.3 q=33.5 size=       0KiB time=00:00:00.16 bitrate=   2.1kbits/s speed=0.00676x elapsed=0:00:24.63    \nframe=    8 fps=0.3 q=34.9 size=       0KiB time=00:00:00.20 bitrate=   1.8kbits/s speed=0.00795x elapsed=0:00:25.16    \nframe=    8 fps=0.3 q=34.9 size=       0KiB time=00:00:00.20 bitrate=   1.8kbits/s speed=0.00778x elapsed=0:00:25.71    \nframe=    8 fps=0.3 q=34.9 size=       0KiB time=00:00:00.20 bitrate=   1.8kbits/s speed=0.00761x elapsed=0:00:26.27    \nframe=    8 fps=0.3 q=34.9 size=       0KiB time=00:00:00.20 bitrate=   1.8kbits/s speed=0.00747x elapsed=0:00:26.78    \nframe=    8 fps=0.3 q=34.9 size=       0KiB time=00:00:00.20 bitrate=   1.8kbits/s speed=0.00732x elapsed=0:00:27.31    \nframe=    8 fps=0.3 q=34.9 size=       0KiB time=00:00:00.20 bitrate=   1.8kbits/s speed=0.00719x elapsed=0:00:27.81    \nframe=    9 fps=0.3 q=33.8 size=       0KiB time=00:00:00.23 bitrate=   1.5kbits/s speed=0.00823x elapsed=0:00:28.34    \nframe=    9 fps=0.3 q=33.8 size=       0KiB time=00:00:00.23 bitrate=   1.5kbits/s speed=0.00808x elapsed=0:00:28.87    \nframe=    9 fps=0.3 q=33.8 size=       0KiB time=00:00:00.23 bitrate=   1.5kbits/s speed=0.00794x elapsed=0:00:29.38    \nframe=    9 fps=0.3 q=33.8 size=       0KiB time=00:00:00.23 bitrate=   1.5kbits/s speed=0.0078x elapsed=0:00:29.92    \nframe=   10 fps=0.3 q=33.4 size=       0KiB time=00:00:00.26 bitrate=   1.3kbits/s speed=0.00875x elapsed=0:00:30.47    \nframe=   10 fps=0.3 q=33.4 size=       0KiB time=00:00:00.26 bitrate=   1.3kbits/s speed=0.0086x elapsed=0:00:31.01    \nframe=   10 fps=0.3 q=33.4 size=       0KiB time=00:00:00.26 bitrate=   1.3kbits/s speed=0.00846x elapsed=0:00:31.53    \nframe=   11 fps=0.3 q=28.5 size=       0KiB time=00:00:00.30 bitrate=   1.2kbits/s speed=0.00936x elapsed=0:00:32.04    \nframe=   11 fps=0.3 q=28.5 size=       0KiB time=00:00:00.30 bitrate=   1.2kbits/s speed=0.00921x elapsed=0:00:32.57    \nframe=   11 fps=0.3 q=28.5 size=       0KiB time=00:00:00.30 bitrate=   1.2kbits/s speed=0.00906x elapsed=0:00:33.11    \nframe=   12 fps=0.4 q=31.5 size=       0KiB time=00:00:00.33 bitrate=   1.1kbits/s speed=0.00991x elapsed=0:00:33.63    \nframe=   12 fps=0.4 q=31.5 size=       0KiB time=00:00:00.33 bitrate=   1.1kbits/s speed=0.00976x elapsed=0:00:34.15    \nframe=   12 fps=0.3 q=31.5 size=       0KiB time=00:00:00.33 bitrate=   1.1kbits/s speed=0.00961x elapsed=0:00:34.68    \nframe=   12 fps=0.3 q=31.5 size=       0KiB time=00:00:00.33 bitrate=   1.1kbits/s speed=0.00947x elapsed=0:00:35.21    \nframe=   13 fps=0.4 q=33.2 size=       0KiB time=00:00:00.36 bitrate=   1.0kbits/s speed=0.0103x elapsed=0:00:35.72    \nframe=   13 fps=0.4 q=33.2 size=       0KiB time=00:00:00.36 bitrate=   1.0kbits/s speed=0.0101x elapsed=0:00:36.24    \nframe=   13 fps=0.4 q=33.2 size=       0KiB time=00:00:00.36 bitrate=   1.0kbits/s speed=0.00998x elapsed=0:00:36.75    \nframe=   13 fps=0.3 q=33.2 size=       0KiB time=00:00:00.36 bitrate=   1.0kbits/s speed=0.00984x elapsed=0:00:37.27    \nframe=   14 fps=0.4 q=32.0 size=       0KiB time=00:00:00.40 bitrate=   0.9kbits/s speed=0.0106x elapsed=0:00:37.81    \nframe=   14 fps=0.4 q=32.0 size=       0KiB time=00:00:00.40 bitrate=   0.9kbits/s speed=0.0104x elapsed=0:00:38.34    \nframe=   15 fps=0.4 q=28.0 size=       0KiB time=00:00:00.43 bitrate=   0.8kbits/s speed=0.0112x elapsed=0:00:38.85    \nframe=   15 fps=0.4 q=28.0 size=       0KiB time=00:00:00.43 bitrate=   0.8kbits/s speed=0.011x elapsed=0:00:39.36    \nframe=   16 fps=0.4 q=29.8 size=       0KiB time=00:00:00.46 bitrate=   0.8kbits/s speed=0.0117x elapsed=0:00:39.88    \nframe=   16 fps=0.4 q=29.8 size=       0KiB time=00:00:00.46 bitrate=   0.8kbits/s speed=0.0115x elapsed=0:00:40.43    \nframe=   16 fps=0.4 q=29.8 size=       0KiB time=00:00:00.46 bitrate=   0.8kbits/s speed=0.0114x elapsed=0:00:40.95    \nframe=   16 fps=0.4 q=29.8 size=       0KiB time=00:00:00.46 bitrate=   0.8kbits/s speed=0.0113x elapsed=0:00:41.46    \nframe=   16 fps=0.4 q=29.8 size=       0KiB time=00:00:00.46 bitrate=   0.8kbits/s speed=0.0111x elapsed=0:00:41.98    \nframe=   17 fps=0.4 q=32.2 size=       0KiB time=00:00:00.50 bitrate=   0.7kbits/s speed=0.0118x elapsed=0:00:42.49    \nframe=   17 fps=0.4 q=32.2 size=       0KiB time=00:00:00.50 bitrate=   0.7kbits/s speed=0.0116x elapsed=0:00:43.01    \nframe=   17 fps=0.4 q=32.2 size=       0KiB time=00:00:00.50 bitrate=   0.7kbits/s speed=0.0115x elapsed=0:00:43.55    \nframe=   18 fps=0.4 q=31.5 size=       0KiB time=00:00:00.53 bitrate=   0.7kbits/s speed=0.0121x elapsed=0:00:44.05    \nframe=   18 fps=0.4 q=31.5 size=       0KiB time=00:00:00.53 bitrate=   0.7kbits/s speed=0.012x elapsed=0:00:44.58    \nframe=   19 fps=0.4 q=27.7 size=       0KiB time=00:00:00.56 bitrate=   0.6kbits/s speed=0.0126x elapsed=0:00:45.10    \nframe=   19 fps=0.4 q=27.7 size=       0KiB time=00:00:00.56 bitrate=   0.6kbits/s speed=0.0124x elapsed=0:00:45.64    \nframe=   19 fps=0.4 q=27.7 size=       0KiB time=00:00:00.56 bitrate=   0.6kbits/s speed=0.0123x elapsed=0:00:46.14    \nframe=   19 fps=0.4 q=27.7 size=       0KiB time=00:00:00.56 bitrate=   0.6kbits/s speed=0.0121x elapsed=0:00:46.66    \nframe=   19 fps=0.4 q=27.7 size=       0KiB time=00:00:00.56 bitrate=   0.6kbits/s speed=0.012x elapsed=0:00:47.19    \nframe=   19 fps=0.4 q=27.7 size=       0KiB time=00:00:00.56 bitrate=   0.6kbits/s speed=0.0119x elapsed=0:00:47.73    \nframe=   19 fps=0.4 q=27.7 size=       0KiB time=00:00:00.56 bitrate=   0.6kbits/s speed=0.0117x elapsed=0:00:48.31    \nframe=   19 fps=0.4 q=27.7 size=       0KiB time=00:00:00.56 bitrate=   0.6kbits/s speed=0.0116x elapsed=0:00:48.94    \nframe=   19 fps=0.4 q=27.7 size=       0KiB time=00:00:00.56 bitrate=   0.6kbits/s speed=0.0114x elapsed=0:00:49.52    \nframe=   20 fps=0.4 q=29.8 size=       0KiB time=00:00:00.60 bitrate=   0.6kbits/s speed=0.012x elapsed=0:00:50.05    \nframe=   20 fps=0.4 q=29.8 size=       0KiB time=00:00:00.60 bitrate=   0.6kbits/s speed=0.0118x elapsed=0:00:50.64    \nframe=   20 fps=0.4 q=29.8 size=       0KiB time=00:00:00.60 bitrate=   0.6kbits/s speed=0.0117x elapsed=0:00:51.14    \nframe=   20 fps=0.4 q=29.8 size=       0KiB time=00:00:00.60 bitrate=   0.6kbits/s speed=0.0116x elapsed=0:00:51.68    \nframe=   20 fps=0.4 q=29.8 size=       0KiB time=00:00:00.60 bitrate=   0.6kbits/s speed=0.0115x elapsed=0:00:52.24    \nframe=   20 fps=0.4 q=29.8 size=       0KiB time=00:00:00.60 bitrate=   0.6kbits/s speed=0.0114x elapsed=0:00:52.76    \nframe=   20 fps=0.4 q=29.8 size=       0KiB time=00:00:00.60 bitrate=   0.6kbits/s speed=0.0113x elapsed=0:00:53.27    \nframe=   21 fps=0.4 q=31.4 size=     256KiB time=00:00:00.63 bitrate=3311.9kbits/s speed=0.0118x elapsed=0:00:53.79    \nframe=   21 fps=0.4 q=31.4 size=     256KiB time=00:00:00.63 bitrate=3311.9kbits/s speed=0.0117x elapsed=0:00:54.30    \nframe=   21 fps=0.4 q=31.4 size=     256KiB time=00:00:00.63 bitrate=3311.9kbits/s speed=0.0115x elapsed=0:00:54.83    \nframe=   21 fps=0.4 q=31.4 size=     256KiB time=00:00:00.63 bitrate=3311.9kbits/s speed=0.0114x elapsed=0:00:55.41    \nframe=   21 fps=0.4 q=31.4 size=     256KiB time=00:00:00.63 bitrate=3311.9kbits/s speed=0.0113x elapsed=0:00:55.92    \nframe=   21 fps=0.4 q=31.4 size=     256KiB time=00:00:00.63 bitrate=3311.9kbits/s speed=0.0112x elapsed=0:00:56.45    \nframe=   21 fps=0.4 q=31.4 size=     256KiB time=00:00:00.63 bitrate=3311.9kbits/s speed=0.0111x elapsed=0:00:56.98    \nframe=   21 fps=0.4 q=31.4 size=     256KiB time=00:00:00.63 bitrate=3311.9kbits/s speed=0.011x elapsed=0:00:57.51    \nframe=   22 fps=0.4 q=27.1 size=     256KiB time=00:00:00.66 bitrate=3146.3kbits/s speed=0.0115x elapsed=0:00:58.03    \nframe=   22 fps=0.4 q=27.1 size=     256KiB time=00:00:00.66 bitrate=3146.3kbits/s speed=0.0114x elapsed=0:00:58.56    \nframe=   22 fps=0.4 q=27.1 size=     256KiB time=00:00:00.66 bitrate=3146.3kbits/s speed=0.0113x elapsed=0:00:59.10    \nframe=   22 fps=0.4 q=27.1 size=     256KiB time=00:00:00.66 bitrate=3146.3kbits/s speed=0.0112x elapsed=0:00:59.63    \nframe=   22 fps=0.4 q=27.1 size=     256KiB time=00:00:00.66 bitrate=3146.3kbits/s speed=0.0111x elapsed=0:01:00.17    \nframe=   23 fps=0.4 q=31.2 size=     256KiB time=00:00:00.70 bitrate=2996.4kbits/s speed=0.0115x elapsed=0:01:00.71    \nframe=   23 fps=0.4 q=31.2 size=     256KiB time=00:00:00.70 bitrate=2996.4kbits/s speed=0.0114x elapsed=0:01:01.22    \nframe=   24 fps=0.4 q=27.7 size=     256KiB time=00:00:00.73 bitrate=2860.2kbits/s speed=0.0119x elapsed=0:01:01.75    \nframe=   24 fps=0.4 q=27.7 size=     256KiB time=00:00:00.73 bitrate=2860.2kbits/s speed=0.0118x elapsed=0:01:02.29    \nframe=   24 fps=0.4 q=27.7 size=     256KiB time=00:00:00.73 bitrate=2860.2kbits/s speed=0.0117x elapsed=0:01:02.81    \nframe=   24 fps=0.4 q=27.7 size=     256KiB time=00:00:00.73 bitrate=2860.2kbits/s speed=0.0116x elapsed=0:01:03.34    \nframe=   24 fps=0.4 q=27.7 size=     256KiB time=00:00:00.73 bitrate=2860.2kbits/s speed=0.0115x elapsed=0:01:03.90    \nframe=   24 fps=0.4 q=27.7 size=     256KiB time=00:00:00.73 bitrate=2860.2kbits/s speed=0.0114x elapsed=0:01:04.44    \nframe=   24 fps=0.4 q=27.7 size=     256KiB time=00:00:00.73 bitrate=2860.2kbits/s speed=0.0113x elapsed=0:01:05.05    \nframe=   24 fps=0.4 q=27.7 size=     256KiB time=00:00:00.73 bitrate=2860.2kbits/s speed=0.0112x elapsed=0:01:05.59    \nframe=   24 fps=0.4 q=27.7 size=     256KiB time=00:00:00.73 bitrate=2860.2kbits/s speed=0.0111x elapsed=0:01:06.13    \nframe=   24 fps=0.4 q=27.7 size=     256KiB time=00:00:00.73 bitrate=2860.2kbits/s speed=0.011x elapsed=0:01:06.70    \nframe=   24 fps=0.4 q=27.7 size=     256KiB time=00:00:00.73 bitrate=2860.2kbits/s speed=0.0109x elapsed=0:01:07.25    \nframe=   24 fps=0.4 q=27.7 size=     256KiB time=00:00:00.73 bitrate=2860.2kbits/s speed=0.0108x elapsed=0:01:07.77    \nframe=   24 fps=0.4 q=27.7 size=     256KiB time=00:00:00.73 bitrate=2860.2kbits/s speed=0.0107x elapsed=0:01:08.31    \nframe=   24 fps=0.3 q=27.7 size=     256KiB time=00:00:00.73 bitrate=2860.2kbits/s speed=0.0106x elapsed=0:01:08.91    \nframe=   24 fps=0.3 q=27.7 size=     256KiB time=00:00:00.73 bitrate=2860.2kbits/s speed=0.0106x elapsed=0:01:09.44    \nframe=   25 fps=0.4 q=28.5 size=     256KiB time=00:00:00.76 bitrate=2735.9kbits/s speed=0.011x elapsed=0:01:09.97    \nframe=   25 fps=0.4 q=28.5 size=     256KiB time=00:00:00.76 bitrate=2735.9kbits/s speed=0.0109x elapsed=0:01:10.50    \nframe=   25 fps=0.4 q=28.5 size=     256KiB time=00:00:00.76 bitrate=2735.9kbits/s speed=0.0108x elapsed=0:01:11.08    \nframe=   25 fps=0.3 q=28.5 size=     256KiB time=00:00:00.76 bitrate=2735.9kbits/s speed=0.0107x elapsed=0:01:11.60    \nframe=   25 fps=0.3 q=28.5 size=     256KiB time=00:00:00.76 bitrate=2735.9kbits/s speed=0.0106x elapsed=0:01:12.11    \nframe=   25 fps=0.3 q=28.5 size=     256KiB time=00:00:00.76 bitrate=2735.9kbits/s speed=0.0106x elapsed=0:01:12.63    \nframe=   25 fps=0.3 q=28.5 size=     256KiB time=00:00:00.76 bitrate=2735.9kbits/s speed=0.0105x elapsed=0:01:13.17    \nframe=   25 fps=0.3 q=28.5 size=     256KiB time=00:00:00.76 bitrate=2735.9kbits/s speed=0.0104x elapsed=0:01:13.74    \nframe=   25 fps=0.3 q=28.5 size=     256KiB time=00:00:00.76 bitrate=2735.9kbits/s speed=0.0103x elapsed=0:01:14.29    \nframe=   26 fps=0.3 q=30.7 size=     256KiB time=00:00:00.80 bitrate=2621.9kbits/s speed=0.0107x elapsed=0:01:14.82    \nframe=   26 fps=0.3 q=30.7 size=     256KiB time=00:00:00.80 bitrate=2621.9kbits/s speed=0.0106x elapsed=0:01:15.35    \nframe=   26 fps=0.3 q=30.7 size=     256KiB time=00:00:00.80 bitrate=2621.9kbits/s speed=0.0105x elapsed=0:01:15.93    \nframe=   26 fps=0.3 q=30.7 size=     256KiB time=00:00:00.80 bitrate=2621.9kbits/s speed=0.0105x elapsed=0:01:16.48    \nframe=   26 fps=0.3 q=30.7 size=     256KiB time=00:00:00.80 bitrate=2621.9kbits/s speed=0.0104x elapsed=0:01:17.02    \nframe=   26 fps=0.3 q=30.7 size=     256KiB time=00:00:00.80 bitrate=2621.9kbits/s speed=0.0103x elapsed=0:01:17.53    \nframe=   26 fps=0.3 q=30.7 size=     256KiB time=00:00:00.80 bitrate=2621.9kbits/s speed=0.0102x elapsed=0:01:18.06    \nframe=   26 fps=0.3 q=30.7 size=     256KiB time=00:00:00.80 bitrate=2621.9kbits/s speed=0.0102x elapsed=0:01:18.64    \nframe=   26 fps=0.3 q=30.7 size=     256KiB time=00:00:00.80 bitrate=2621.9kbits/s speed=0.0101x elapsed=0:01:19.17    \nframe=   26 fps=0.3 q=30.7 size=     256KiB time=00:00:00.80 bitrate=2621.9kbits/s speed=0.01x elapsed=0:01:19.73    \nframe=   27 fps=0.3 q=27.6 size=     256KiB time=00:00:00.83 bitrate=2517.0kbits/s speed=0.0104x elapsed=0:01:20.27    \nframe=   27 fps=0.3 q=27.6 size=     256KiB time=00:00:00.83 bitrate=2517.0kbits/s speed=0.0103x elapsed=0:01:20.81    \nframe=   27 fps=0.3 q=27.6 size=     256KiB time=00:00:00.83 bitrate=2517.0kbits/s speed=0.0102x elapsed=0:01:21.37    \nframe=   27 fps=0.3 q=27.6 size=     256KiB time=00:00:00.83 bitrate=2517.0kbits/s speed=0.0102x elapsed=0:01:21.90    \nframe=   27 fps=0.3 q=27.6 size=     256KiB time=00:00:00.83 bitrate=2517.0kbits/s speed=0.0101x elapsed=0:01:22.46    \nframe=   28 fps=0.3 q=31.2 size=     256KiB time=00:00:00.86 bitrate=2420.2kbits/s speed=0.0104x elapsed=0:01:23.01    \nframe=   28 fps=0.3 q=31.2 size=     256KiB time=00:00:00.86 bitrate=2420.2kbits/s speed=0.0104x elapsed=0:01:23.54    \nframe=   28 fps=0.3 q=31.2 size=     256KiB time=00:00:00.86 bitrate=2420.2kbits/s speed=0.0103x elapsed=0:01:24.09    \nframe=   28 fps=0.3 q=31.2 size=     256KiB time=00:00:00.86 bitrate=2420.2kbits/s speed=0.0102x elapsed=0:01:24.60    \nframe=   28 fps=0.3 q=31.2 size=     256KiB time=00:00:00.86 bitrate=2420.2kbits/s speed=0.0102x elapsed=0:01:25.12    \nframe=   28 fps=0.3 q=31.2 size=     256KiB time=00:00:00.86 bitrate=2420.2kbits/s speed=0.0101x elapsed=0:01:25.65    \nframe=   28 fps=0.3 q=31.2 size=     256KiB time=00:00:00.86 bitrate=2420.2kbits/s speed=0.0101x elapsed=0:01:26.22    \nframe=   28 fps=0.3 q=31.2 size=     256KiB time=00:00:00.86 bitrate=2420.2kbits/s speed=0.00998x elapsed=0:01:26.83    \nframe=   28 fps=0.3 q=31.2 size=     256KiB time=00:00:00.86 bitrate=2420.2kbits/s speed=0.00991x elapsed=0:01:27.42    \nframe=   28 fps=0.3 q=31.2 size=     256KiB time=00:00:00.86 bitrate=2420.2kbits/s speed=0.00985x elapsed=0:01:27.98    \nframe=   28 fps=0.3 q=31.2 size=     256KiB time=00:00:00.86 bitrate=2420.2kbits/s speed=0.00978x elapsed=0:01:28.58    \nframe=   28 fps=0.3 q=31.2 size=     256KiB time=00:00:00.86 bitrate=2420.2kbits/s speed=0.00972x elapsed=0:01:29.17    \nframe=   28 fps=0.3 q=31.2 size=     256KiB time=00:00:00.86 bitrate=2420.2kbits/s speed=0.00966x elapsed=0:01:29.74    \nframe=   28 fps=0.3 q=31.2 size=     256KiB time=00:00:00.86 bitrate=2420.2kbits/s speed=0.0096x elapsed=0:01:30.30    \nframe=   28 fps=0.3 q=31.2 size=     256KiB time=00:00:00.86 bitrate=2420.2kbits/s speed=0.00954x elapsed=0:01:30.82    \nframe=   29 fps=0.3 q=27.5 size=     256KiB time=00:00:00.90 bitrate=2330.6kbits/s speed=0.00985x elapsed=0:01:31.39    \nframe=   29 fps=0.3 q=27.5 size=     256KiB time=00:00:00.90 bitrate=2330.6kbits/s speed=0.00979x elapsed=0:01:31.94    \nframe=   29 fps=0.3 q=27.5 size=     256KiB time=00:00:00.90 bitrate=2330.6kbits/s speed=0.00973x elapsed=0:01:32.53    \nframe=   29 fps=0.3 q=27.5 size=     256KiB time=00:00:00.90 bitrate=2330.6kbits/s speed=0.00967x elapsed=0:01:33.07    \nframe=   30 fps=0.3 q=30.8 size=     256KiB time=00:00:00.93 bitrate=2247.3kbits/s speed=0.00997x elapsed=0:01:33.58    \nframe=   30 fps=0.3 q=30.8 size=     256KiB time=00:00:00.93 bitrate=2247.3kbits/s speed=0.00991x elapsed=0:01:34.13    \nframe=   30 fps=0.3 q=30.8 size=     256KiB time=00:00:00.93 bitrate=2247.3kbits/s speed=0.00986x elapsed=0:01:34.66    \nframe=   30 fps=0.3 q=30.8 size=     256KiB time=00:00:00.93 bitrate=2247.3kbits/s speed=0.00981x elapsed=0:01:35.18    \nframe=   31 fps=0.3 q=27.4 size=     256KiB time=00:00:00.96 bitrate=2169.8kbits/s speed=0.0101x elapsed=0:01:35.70    \nframe=   31 fps=0.3 q=27.4 size=     256KiB time=00:00:00.96 bitrate=2169.8kbits/s speed=0.01x elapsed=0:01:36.22    \nframe=   31 fps=0.3 q=27.4 size=     256KiB time=00:00:00.96 bitrate=2169.8kbits/s speed=0.00999x elapsed=0:01:36.74    \nframe=   31 fps=0.3 q=27.4 size=     256KiB time=00:00:00.96 bitrate=2169.8kbits/s speed=0.00994x elapsed=0:01:37.27    \nframe=   32 fps=0.3 q=29.7 size=     256KiB time=00:00:01.00 bitrate=2097.5kbits/s speed=0.0102x elapsed=0:01:37.79    \nframe=   32 fps=0.3 q=29.7 size=     256KiB time=00:00:01.00 bitrate=2097.5kbits/s speed=0.0102x elapsed=0:01:38.31    \nframe=   32 fps=0.3 q=29.7 size=     256KiB time=00:00:01.00 bitrate=2097.5kbits/s speed=0.0101x elapsed=0:01:38.82    \nframe=   32 fps=0.3 q=29.7 size=     256KiB time=00:00:01.00 bitrate=2097.5kbits/s speed=0.0101x elapsed=0:01:39.33    \nframe=   32 fps=0.3 q=29.7 size=     256KiB time=00:00:01.00 bitrate=2097.5kbits/s speed=0.01x elapsed=0:01:39.86    \nframe=   32 fps=0.3 q=29.7 size=     256KiB time=00:00:01.00 bitrate=2097.5kbits/s speed=0.00996x elapsed=0:01:40.37    \nframe=   33 fps=0.3 q=30.5 size=     256KiB time=00:00:01.03 bitrate=2029.8kbits/s speed=0.0102x elapsed=0:01:40.90    \nframe=   33 fps=0.3 q=30.5 size=     256KiB time=00:00:01.03 bitrate=2029.8kbits/s speed=0.0102x elapsed=0:01:41.41    \nframe=   33 fps=0.3 q=30.5 size=     256KiB time=00:00:01.03 bitrate=2029.8kbits/s speed=0.0101x elapsed=0:01:41.94    \nframe=   34 fps=0.3 q=27.1 size=     256KiB time=00:00:01.06 bitrate=1966.4kbits/s speed=0.0104x elapsed=0:01:42.49    \nframe=   34 fps=0.3 q=27.1 size=     256KiB time=00:00:01.06 bitrate=1966.4kbits/s speed=0.0104x elapsed=0:01:43.01    \nframe=   34 fps=0.3 q=27.1 size=     256KiB time=00:00:01.06 bitrate=1966.4kbits/s speed=0.0103x elapsed=0:01:43.52    \nframe=   34 fps=0.3 q=27.1 size=     256KiB time=00:00:01.06 bitrate=1966.4kbits/s speed=0.0103x elapsed=0:01:44.04    \nframe=   34 fps=0.3 q=27.1 size=     256KiB time=00:00:01.06 bitrate=1966.4kbits/s speed=0.0102x elapsed=0:01:44.56    \nframe=   34 fps=0.3 q=27.1 size=     256KiB time=00:00:01.06 bitrate=1966.4kbits/s speed=0.0102x elapsed=0:01:45.08    \nframe=   35 fps=0.3 q=27.1 size=     256KiB time=00:00:01.10 bitrate=1906.8kbits/s speed=0.0104x elapsed=0:01:45.61    \nframe=   35 fps=0.3 q=27.1 size=     256KiB time=00:00:01.10 bitrate=1906.8kbits/s speed=0.0104x elapsed=0:01:46.12    \nframe=   35 fps=0.3 q=27.1 size=     256KiB time=00:00:01.10 bitrate=1906.8kbits/s speed=0.0103x elapsed=0:01:46.64    \nframe=   36 fps=0.3 q=30.6 size=     256KiB time=00:00:01.13 bitrate=1850.7kbits/s speed=0.0106x elapsed=0:01:47.19    \nframe=   36 fps=0.3 q=30.6 size=     256KiB time=00:00:01.13 bitrate=1850.7kbits/s speed=0.0105x elapsed=0:01:47.71    \nframe=   36 fps=0.3 q=30.6 size=     256KiB time=00:00:01.13 bitrate=1850.7kbits/s speed=0.0105x elapsed=0:01:48.23    \nframe=   36 fps=0.3 q=30.6 size=     256KiB time=00:00:01.13 bitrate=1850.7kbits/s speed=0.0104x elapsed=0:01:48.75    \nframe=   37 fps=0.3 q=27.4 size=     256KiB time=00:00:01.16 bitrate=1797.9kbits/s speed=0.0107x elapsed=0:01:49.25    \nframe=   37 fps=0.3 q=27.4 size=     256KiB time=00:00:01.16 bitrate=1797.9kbits/s speed=0.0106x elapsed=0:01:49.78    \nframe=   38 fps=0.3 q=28.3 size=     512KiB time=00:00:01.20 bitrate=3495.5kbits/s speed=0.0109x elapsed=0:01:50.28    \nframe=   38 fps=0.3 q=28.3 size=     512KiB time=00:00:01.20 bitrate=3495.5kbits/s speed=0.0108x elapsed=0:01:50.81    \nframe=   38 fps=0.3 q=28.3 size=     512KiB time=00:00:01.20 bitrate=3495.5kbits/s speed=0.0108x elapsed=0:01:51.34    \nframe=   38 fps=0.3 q=28.3 size=     512KiB time=00:00:01.20 bitrate=3495.5kbits/s speed=0.0107x elapsed=0:01:51.86    \nframe=   38 fps=0.3 q=28.3 size=     512KiB time=00:00:01.20 bitrate=3495.5kbits/s speed=0.0107x elapsed=0:01:52.40    \nframe=   38 fps=0.3 q=28.3 size=     512KiB time=00:00:01.20 bitrate=3495.5kbits/s speed=0.0106x elapsed=0:01:52.94    \nframe=   38 fps=0.3 q=28.3 size=     512KiB time=00:00:01.20 bitrate=3495.5kbits/s speed=0.0106x elapsed=0:01:53.46    \nframe=   38 fps=0.3 q=28.3 size=     512KiB time=00:00:01.20 bitrate=3495.5kbits/s speed=0.0105x elapsed=0:01:53.98    \nframe=   38 fps=0.3 q=28.3 size=     512KiB time=00:00:01.20 bitrate=3495.5kbits/s speed=0.0105x elapsed=0:01:54.51    \nframe=   38 fps=0.3 q=28.3 size=     512KiB time=00:00:01.20 bitrate=3495.5kbits/s speed=0.0104x elapsed=0:01:55.02    \nframe=   39 fps=0.3 q=30.8 size=     512KiB time=00:00:01.23 bitrate=3401.1kbits/s speed=0.0107x elapsed=0:01:55.54    \nframe=   39 fps=0.3 q=30.8 size=     512KiB time=00:00:01.23 bitrate=3401.1kbits/s speed=0.0106x elapsed=0:01:56.06    \nframe=   39 fps=0.3 q=30.8 size=     512KiB time=00:00:01.23 bitrate=3401.1kbits/s speed=0.0106x elapsed=0:01:56.59    \nframe=   39 fps=0.3 q=30.8 size=     512KiB time=00:00:01.23 bitrate=3401.1kbits/s speed=0.0105x elapsed=0:01:57.11    \nframe=   39 fps=0.3 q=30.8 size=     512KiB time=00:00:01.23 bitrate=3401.1kbits/s speed=0.0105x elapsed=0:01:57.64    \nframe=   39 fps=0.3 q=30.8 size=     512KiB time=00:00:01.23 bitrate=3401.1kbits/s speed=0.0104x elapsed=0:01:58.16    \nframe=   40 fps=0.3 q=30.6 size=     512KiB time=00:00:01.26 bitrate=3311.6kbits/s speed=0.0107x elapsed=0:01:58.68    \nframe=   40 fps=0.3 q=30.6 size=     512KiB time=00:00:01.26 bitrate=3311.6kbits/s speed=0.0106x elapsed=0:01:59.21    \nframe=   40 fps=0.3 q=30.6 size=     512KiB time=00:00:01.26 bitrate=3311.6kbits/s speed=0.0106x elapsed=0:01:59.73    \nframe=   40 fps=0.3 q=30.6 size=     512KiB time=00:00:01.26 bitrate=3311.6kbits/s speed=0.0105x elapsed=0:02:00.24    \nframe=   41 fps=0.3 q=27.0 size=     512KiB time=00:00:01.30 bitrate=3226.7kbits/s speed=0.0108x elapsed=0:02:00.75    \nframe=   41 fps=0.3 q=27.0 size=     512KiB time=00:00:01.30 bitrate=3226.7kbits/s speed=0.0107x elapsed=0:02:01.27    \nframe=   42 fps=0.3 q=28.5 size=     512KiB time=00:00:01.33 bitrate=3146.0kbits/s speed=0.0109x elapsed=0:02:01.79    \nframe=   42 fps=0.3 q=28.5 size=     512KiB time=00:00:01.33 bitrate=3146.0kbits/s speed=0.0109x elapsed=0:02:02.37    \nframe=   42 fps=0.3 q=28.5 size=     512KiB time=00:00:01.33 bitrate=3146.0kbits/s speed=0.0108x elapsed=0:02:02.90    \nframe=   42 fps=0.3 q=28.5 size=     512KiB time=00:00:01.33 bitrate=3146.0kbits/s speed=0.0108x elapsed=0:02:03.44    \nframe=   42 fps=0.3 q=28.5 size=     512KiB time=00:00:01.33 bitrate=3146.0kbits/s speed=0.0108x elapsed=0:02:03.96    \nframe=   42 fps=0.3 q=28.5 size=     512KiB time=00:00:01.33 bitrate=3146.0kbits/s speed=0.0107x elapsed=0:02:04.49    \nframe=   43 fps=0.3 q=30.4 size=     512KiB time=00:00:01.36 bitrate=3069.3kbits/s speed=0.0109x elapsed=0:02:05.01    \nframe=   43 fps=0.3 q=30.4 size=     512KiB time=00:00:01.36 bitrate=3069.3kbits/s speed=0.0109x elapsed=0:02:05.52    \nframe=   43 fps=0.3 q=30.4 size=     512KiB time=00:00:01.36 bitrate=3069.3kbits/s speed=0.0108x elapsed=0:02:06.05    \nframe=   44 fps=0.3 q=30.3 size=     512KiB time=00:00:01.40 bitrate=2996.2kbits/s speed=0.0111x elapsed=0:02:06.55    \nframe=   44 fps=0.3 q=30.3 size=     512KiB time=00:00:01.40 bitrate=2996.2kbits/s speed=0.011x elapsed=0:02:07.07    \nframe=   45 fps=0.4 q=26.8 size=     512KiB time=00:00:01.43 bitrate=2926.5kbits/s speed=0.0112x elapsed=0:02:07.61    \nframe=   45 fps=0.4 q=26.8 size=     512KiB time=00:00:01.43 bitrate=2926.5kbits/s speed=0.0112x elapsed=0:02:08.13    \nframe=   45 fps=0.3 q=26.8 size=     512KiB time=00:00:01.43 bitrate=2926.5kbits/s speed=0.0111x elapsed=0:02:08.65    \nframe=   45 fps=0.3 q=26.8 size=     512KiB time=00:00:01.43 bitrate=2926.5kbits/s speed=0.0111x elapsed=0:02:09.20    \nframe=   45 fps=0.3 q=26.8 size=     512KiB time=00:00:01.43 bitrate=2926.5kbits/s speed=0.011x elapsed=0:02:09.74    \nframe=   45 fps=0.3 q=26.8 size=     512KiB time=00:00:01.43 bitrate=2926.5kbits/s speed=0.011x elapsed=0:02:10.32    \nframe=   45 fps=0.3 q=26.8 size=     512KiB time=00:00:01.43 bitrate=2926.5kbits/s speed=0.0109x elapsed=0:02:10.92    \nframe=   45 fps=0.3 q=26.8 size=     512KiB time=00:00:01.43 bitrate=2926.5kbits/s speed=0.0109x elapsed=0:02:11.43    \nframe=   45 fps=0.3 q=26.8 size=     512KiB time=00:00:01.43 bitrate=2926.5kbits/s speed=0.0109x elapsed=0:02:12.00    \nframe=   46 fps=0.3 q=28.0 size=     512KiB time=00:00:01.43 bitrate=2926.5kbits/s speed=0.0108x elapsed=0:02:12.65    \nframe=   46 fps=0.3 q=28.0 size=     512KiB time=00:00:01.46 bitrate=2860.0kbits/s speed=0.011x elapsed=0:02:13.33    \nframe=   46 fps=0.3 q=28.0 size=     512KiB time=00:00:01.46 bitrate=2860.0kbits/s speed=0.011x elapsed=0:02:13.92    \nframe=   46 fps=0.3 q=28.0 size=     512KiB time=00:00:01.46 bitrate=2860.0kbits/s speed=0.0109x elapsed=0:02:14.46    \nframe=   46 fps=0.3 q=28.0 size=     512KiB time=00:00:01.46 bitrate=2860.0kbits/s speed=0.0109x elapsed=0:02:14.99    \nframe=   46 fps=0.3 q=28.0 size=     512KiB time=00:00:01.46 bitrate=2860.0kbits/s speed=0.0108x elapsed=0:02:15.52    \nframe=   46 fps=0.3 q=28.0 size=     512KiB time=00:00:01.46 bitrate=2860.0kbits/s speed=0.0108x elapsed=0:02:16.06    \nframe=   46 fps=0.3 q=28.0 size=     512KiB time=00:00:01.46 bitrate=2860.0kbits/s speed=0.0107x elapsed=0:02:16.59    \nframe=   46 fps=0.3 q=28.0 size=     512KiB time=00:00:01.46 bitrate=2860.0kbits/s speed=0.0107x elapsed=0:02:17.13    \nframe=   46 fps=0.3 q=28.0 size=     512KiB time=00:00:01.46 bitrate=2860.0kbits/s speed=0.0107x elapsed=0:02:17.68    \nframe=   47 fps=0.3 q=30.2 size=     512KiB time=00:00:01.50 bitrate=2796.4kbits/s speed=0.0108x elapsed=0:02:18.26    \nframe=   47 fps=0.3 q=30.2 size=     512KiB time=00:00:01.50 bitrate=2796.4kbits/s speed=0.0108x elapsed=0:02:18.81    \nframe=   47 fps=0.3 q=30.2 size=     512KiB time=00:00:01.50 bitrate=2796.4kbits/s speed=0.0108x elapsed=0:02:19.34    \nframe=   47 fps=0.3 q=30.2 size=     512KiB time=00:00:01.50 bitrate=2796.4kbits/s speed=0.0107x elapsed=0:02:19.86    \nframe=   47 fps=0.3 q=30.2 size=     512KiB time=00:00:01.50 bitrate=2796.4kbits/s speed=0.0107x elapsed=0:02:20.39    \nframe=   47 fps=0.3 q=30.2 size=     512KiB time=00:00:01.50 bitrate=2796.4kbits/s speed=0.0106x elapsed=0:02:20.93    \nframe=   48 fps=0.3 q=26.7 size=     512KiB time=00:00:01.53 bitrate=2735.6kbits/s speed=0.0108x elapsed=0:02:21.48    \nframe=   48 fps=0.3 q=26.7 size=     512KiB time=00:00:01.53 bitrate=2735.6kbits/s speed=0.0108x elapsed=0:02:21.99    \nframe=   48 fps=0.3 q=26.7 size=     512KiB time=00:00:01.53 bitrate=2735.6kbits/s speed=0.0108x elapsed=0:02:22.51    \nframe=   48 fps=0.3 q=26.7 size=     512KiB time=00:00:01.53 bitrate=2735.6kbits/s speed=0.0107x elapsed=0:02:23.06    \nframe=   48 fps=0.3 q=26.7 size=     512KiB time=00:00:01.53 bitrate=2735.6kbits/s speed=0.0107x elapsed=0:02:23.61    \nframe=   48 fps=0.3 q=26.7 size=     512KiB time=00:00:01.53 bitrate=2735.6kbits/s speed=0.0106x elapsed=0:02:24.15    \nframe=   48 fps=0.3 q=26.7 size=     512KiB time=00:00:01.53 bitrate=2735.6kbits/s speed=0.0106x elapsed=0:02:24.70    \nframe=   48 fps=0.3 q=26.7 size=     512KiB time=00:00:01.53 bitrate=2735.6kbits/s speed=0.0106x elapsed=0:02:25.21    \nframe=   48 fps=0.3 q=26.7 size=     512KiB time=00:00:01.53 bitrate=2735.6kbits/s speed=0.0105x elapsed=0:02:25.73    \nframe=   48 fps=0.3 q=26.7 size=     512KiB time=00:00:01.53 bitrate=2735.6kbits/s speed=0.0105x elapsed=0:02:26.23    \nframe=   49 fps=0.3 q=27.4 size=     512KiB time=00:00:01.56 bitrate=2677.4kbits/s speed=0.0107x elapsed=0:02:26.76    \nframe=   49 fps=0.3 q=27.4 size=     512KiB time=00:00:01.56 bitrate=2677.4kbits/s speed=0.0106x elapsed=0:02:27.29    \nframe=   49 fps=0.3 q=27.4 size=     512KiB time=00:00:01.56 bitrate=2677.4kbits/s speed=0.0106x elapsed=0:02:27.82    \nframe=   50 fps=0.3 q=31.1 size=     512KiB time=00:00:01.60 bitrate=2621.7kbits/s speed=0.0108x elapsed=0:02:28.35    \nframe=   50 fps=0.3 q=31.1 size=     512KiB time=00:00:01.60 bitrate=2621.7kbits/s speed=0.0107x elapsed=0:02:28.87    \nframe=   51 fps=0.3 q=26.9 size=     512KiB time=00:00:01.63 bitrate=2568.2kbits/s speed=0.0109x elapsed=0:02:29.38    \nframe=   51 fps=0.3 q=26.9 size=     512KiB time=00:00:01.63 bitrate=2568.2kbits/s speed=0.0109x elapsed=0:02:29.92    \nframe=   51 fps=0.3 q=26.9 size=     512KiB time=00:00:01.63 bitrate=2568.2kbits/s speed=0.0109x elapsed=0:02:30.46    \nframe=   51 fps=0.3 q=26.9 size=     512KiB time=00:00:01.63 bitrate=2568.2kbits/s speed=0.0108x elapsed=0:02:30.99    \nframe=   51 fps=0.3 q=26.9 size=     512KiB time=00:00:01.63 bitrate=2568.2kbits/s speed=0.0108x elapsed=0:02:31.50    \nframe=   51 fps=0.3 q=26.9 size=     512KiB time=00:00:01.63 bitrate=2568.2kbits/s speed=0.0107x elapsed=0:02:32.02    \nframe=   52 fps=0.3 q=28.6 size=     512KiB time=00:00:01.66 bitrate=2516.8kbits/s speed=0.0109x elapsed=0:02:32.54    \nframe=   52 fps=0.3 q=28.6 size=     512KiB time=00:00:01.66 bitrate=2516.8kbits/s speed=0.0109x elapsed=0:02:33.06    \nframe=   52 fps=0.3 q=28.6 size=     512KiB time=00:00:01.66 bitrate=2516.8kbits/s speed=0.0109x elapsed=0:02:33.58    \nframe=   52 fps=0.3 q=28.6 size=     512KiB time=00:00:01.66 bitrate=2516.8kbits/s speed=0.0108x elapsed=0:02:34.11    \nframe=   53 fps=0.3 q=30.8 size=     768KiB time=00:00:01.70 bitrate=3701.1kbits/s speed=0.011x elapsed=0:02:34.63    \nframe=   53 fps=0.3 q=30.8 size=     768KiB time=00:00:01.70 bitrate=3701.1kbits/s speed=0.011x elapsed=0:02:35.14    \nframe=   53 fps=0.3 q=30.8 size=     768KiB time=00:00:01.70 bitrate=3701.1kbits/s speed=0.0109x elapsed=0:02:35.67    \nframe=   53 fps=0.3 q=30.8 size=     768KiB time=00:00:01.70 bitrate=3701.1kbits/s speed=0.0109x elapsed=0:02:36.19    \nframe=   54 fps=0.3 q=30.4 size=     768KiB time=00:00:01.73 bitrate=3629.9kbits/s speed=0.0111x elapsed=0:02:36.71    \nframe=   54 fps=0.3 q=30.4 size=     768KiB time=00:00:01.73 bitrate=3629.9kbits/s speed=0.011x elapsed=0:02:37.22    \nframe=   54 fps=0.3 q=30.4 size=     768KiB time=00:00:01.73 bitrate=3629.9kbits/s speed=0.011x elapsed=0:02:37.75    \nframe=   55 fps=0.3 q=26.7 size=     768KiB time=00:00:01.76 bitrate=3561.4kbits/s speed=0.0112x elapsed=0:02:38.27    \nframe=   55 fps=0.3 q=26.7 size=     768KiB time=00:00:01.76 bitrate=3561.4kbits/s speed=0.0111x elapsed=0:02:38.79    \nframe=   55 fps=0.3 q=26.7 size=     768KiB time=00:00:01.76 bitrate=3561.4kbits/s speed=0.0111x elapsed=0:02:39.32    \nframe=   55 fps=0.3 q=26.7 size=     768KiB time=00:00:01.76 bitrate=3561.4kbits/s speed=0.0111x elapsed=0:02:39.87    \nframe=   55 fps=0.3 q=26.7 size=     768KiB time=00:00:01.76 bitrate=3561.4kbits/s speed=0.011x elapsed=0:02:40.41    \nframe=   55 fps=0.3 q=26.7 size=     768KiB time=00:00:01.76 bitrate=3561.4kbits/s speed=0.011x elapsed=0:02:40.94    \nframe=   56 fps=0.3 q=28.4 size=     768KiB time=00:00:01.80 bitrate=3495.4kbits/s speed=0.0111x elapsed=0:02:41.46    \nframe=   56 fps=0.3 q=28.4 size=     768KiB time=00:00:01.80 bitrate=3495.4kbits/s speed=0.0111x elapsed=0:02:42.01    \nframe=   56 fps=0.3 q=28.4 size=     768KiB time=00:00:01.80 bitrate=3495.4kbits/s speed=0.0111x elapsed=0:02:42.52    \nframe=   56 fps=0.3 q=28.4 size=     768KiB time=00:00:01.80 bitrate=3495.4kbits/s speed=0.011x elapsed=0:02:43.04    \nframe=   56 fps=0.3 q=28.4 size=     768KiB time=00:00:01.80 bitrate=3495.4kbits/s speed=0.011x elapsed=0:02:43.55    \nframe=   57 fps=0.3 q=30.5 size=     768KiB time=00:00:01.83 bitrate=3431.9kbits/s speed=0.0112x elapsed=0:02:44.09    \nframe=   57 fps=0.3 q=30.5 size=     768KiB time=00:00:01.83 bitrate=3431.9kbits/s speed=0.0111x elapsed=0:02:44.61    \nframe=   57 fps=0.3 q=30.5 size=     768KiB time=00:00:01.83 bitrate=3431.9kbits/s speed=0.0111x elapsed=0:02:45.12    \nframe=   57 fps=0.3 q=30.5 size=     768KiB time=00:00:01.83 bitrate=3431.9kbits/s speed=0.0111x elapsed=0:02:45.65    \nframe=   58 fps=0.3 q=26.6 size=     768KiB time=00:00:01.86 bitrate=3370.6kbits/s speed=0.0112x elapsed=0:02:46.19    \nframe=   58 fps=0.3 q=26.6 size=     768KiB time=00:00:01.86 bitrate=3370.6kbits/s speed=0.0112x elapsed=0:02:46.71    \nframe=   58 fps=0.3 q=26.6 size=     768KiB time=00:00:01.86 bitrate=3370.6kbits/s speed=0.0112x elapsed=0:02:47.23    \nframe=   58 fps=0.3 q=26.6 size=     768KiB time=00:00:01.86 bitrate=3370.6kbits/s speed=0.0111x elapsed=0:02:47.74    \nframe=   58 fps=0.3 q=26.6 size=     768KiB time=00:00:01.86 bitrate=3370.6kbits/s speed=0.0111x elapsed=0:02:48.27    \nframe=   59 fps=0.3 q=29.0 size=     768KiB time=00:00:01.90 bitrate=3311.5kbits/s speed=0.0113x elapsed=0:02:48.79    \nframe=   59 fps=0.3 q=29.0 size=     768KiB time=00:00:01.90 bitrate=3311.5kbits/s speed=0.0112x elapsed=0:02:49.32    \nframe=   60 fps=0.4 q=30.6 size=     768KiB time=00:00:01.93 bitrate=3254.4kbits/s speed=0.0114x elapsed=0:02:49.87    \nframe=   60 fps=0.4 q=30.6 size=     768KiB time=00:00:01.93 bitrate=3254.4kbits/s speed=0.0113x elapsed=0:02:50.41    \nframe=   61 fps=0.4 q=30.2 size=     768KiB time=00:00:01.96 bitrate=3199.2kbits/s speed=0.0115x elapsed=0:02:50.96    \nframe=   61 fps=0.4 q=30.2 size=     768KiB time=00:00:01.96 bitrate=3199.2kbits/s speed=0.0115x elapsed=0:02:51.49    \nframe=   61 fps=0.4 q=30.2 size=     768KiB time=00:00:01.96 bitrate=3199.2kbits/s speed=0.0114x elapsed=0:02:52.01    \nframe=   61 fps=0.4 q=30.2 size=     768KiB time=00:00:01.96 bitrate=3199.2kbits/s speed=0.0114x elapsed=0:02:52.54    \nframe=   61 fps=0.4 q=30.2 size=     768KiB time=00:00:01.96 bitrate=3199.2kbits/s speed=0.0114x elapsed=0:02:53.05    \nframe=   61 fps=0.4 q=30.2 size=     768KiB time=00:00:01.96 bitrate=3199.2kbits/s speed=0.0113x elapsed=0:02:53.57    \nframe=   62 fps=0.4 q=30.7 size=     768KiB time=00:00:02.00 bitrate=3145.9kbits/s speed=0.0115x elapsed=0:02:54.09    \nframe=   62 fps=0.4 q=30.7 size=     768KiB time=00:00:02.00 bitrate=3145.9kbits/s speed=0.0115x elapsed=0:02:54.61    \nframe=   62 fps=0.4 q=30.7 size=     768KiB time=00:00:02.00 bitrate=3145.9kbits/s speed=0.0114x elapsed=0:02:55.14    \nframe=   62 fps=0.4 q=30.7 size=     768KiB time=00:00:02.00 bitrate=3145.9kbits/s speed=0.0114x elapsed=0:02:55.67    \nframe=   63 fps=0.4 q=26.7 size=     768KiB time=00:00:02.03 bitrate=3094.3kbits/s speed=0.0115x elapsed=0:02:56.20    \nframe=   63 fps=0.4 q=26.7 size=     768KiB time=00:00:02.03 bitrate=3094.3kbits/s speed=0.0115x elapsed=0:02:56.72    \nframe=   64 fps=0.4 q=30.8 size=     768KiB time=00:00:02.06 bitrate=3044.4kbits/s speed=0.0117x elapsed=0:02:57.22    \nframe=   64 fps=0.4 q=30.8 size=     768KiB time=00:00:02.06 bitrate=3044.4kbits/s speed=0.0116x elapsed=0:02:57.74    \nframe=   64 fps=0.4 q=30.8 size=     768KiB time=00:00:02.06 bitrate=3044.4kbits/s speed=0.0116x elapsed=0:02:58.26    \nframe=   65 fps=0.4 q=27.0 size=     768KiB time=00:00:02.10 bitrate=2996.1kbits/s speed=0.0117x elapsed=0:02:58.77    \nframe=   65 fps=0.4 q=27.0 size=     768KiB time=00:00:02.10 bitrate=2996.1kbits/s speed=0.0117x elapsed=0:02:59.28    \nframe=   66 fps=0.4 q=29.1 size=     768KiB time=00:00:02.13 bitrate=2949.3kbits/s speed=0.0119x elapsed=0:02:59.87    \nframe=   66 fps=0.4 q=29.1 size=     768KiB time=00:00:02.13 bitrate=2949.3kbits/s speed=0.0118x elapsed=0:03:00.44    \nframe=   66 fps=0.4 q=29.1 size=     768KiB time=00:00:02.13 bitrate=2949.3kbits/s speed=0.0118x elapsed=0:03:00.98    \nframe=   66 fps=0.4 q=29.1 size=     768KiB time=00:00:02.13 bitrate=2949.3kbits/s speed=0.0118x elapsed=0:03:01.49    \nframe=   66 fps=0.4 q=29.1 size=     768KiB time=00:00:02.13 bitrate=2949.3kbits/s speed=0.0117x elapsed=0:03:02.02    \nframe=   66 fps=0.4 q=29.1 size=     768KiB time=00:00:02.13 bitrate=2949.3kbits/s speed=0.0117x elapsed=0:03:02.56    \nframe=   67 fps=0.4 q=31.1 size=     768KiB time=00:00:02.16 bitrate=2903.9kbits/s speed=0.0118x elapsed=0:03:03.08    \nframe=   67 fps=0.4 q=31.1 size=     768KiB time=00:00:02.16 bitrate=2903.9kbits/s speed=0.0118x elapsed=0:03:03.58    \nframe=   67 fps=0.4 q=31.1 size=     768KiB time=00:00:02.16 bitrate=2903.9kbits/s speed=0.0118x elapsed=0:03:04.10    \nframe=   67 fps=0.4 q=31.1 size=     768KiB time=00:00:02.16 bitrate=2903.9kbits/s speed=0.0117x elapsed=0:03:04.62    \nframe=   68 fps=0.4 q=31.1 size=    1024KiB time=00:00:02.20 bitrate=3813.2kbits/s speed=0.0119x elapsed=0:03:05.14    \nframe=   68 fps=0.4 q=31.1 size=    1024KiB time=00:00:02.20 bitrate=3813.2kbits/s speed=0.0118x elapsed=0:03:05.67    \nframe=   69 fps=0.4 q=27.1 size=    1024KiB time=00:00:02.23 bitrate=3756.3kbits/s speed=0.012x elapsed=0:03:06.18    \nframe=   70 fps=0.4 q=29.0 size=    1024KiB time=00:00:02.26 bitrate=3701.0kbits/s speed=0.0121x elapsed=0:03:06.71    \nframe=   70 fps=0.4 q=29.0 size=    1024KiB time=00:00:02.26 bitrate=3701.0kbits/s speed=0.0121x elapsed=0:03:07.23    \nframe=   70 fps=0.4 q=29.0 size=    1024KiB time=00:00:02.26 bitrate=3701.0kbits/s speed=0.0121x elapsed=0:03:07.75    \nframe=   70 fps=0.4 q=29.0 size=    1024KiB time=00:00:02.26 bitrate=3701.0kbits/s speed=0.012x elapsed=0:03:08.27    \nframe=   71 fps=0.4 q=31.0 size=    1024KiB time=00:00:02.30 bitrate=3647.4kbits/s speed=0.0122x elapsed=0:03:08.78    \nframe=   71 fps=0.4 q=31.0 size=    1024KiB time=00:00:02.30 bitrate=3647.4kbits/s speed=0.0121x elapsed=0:03:09.34    \nframe=   72 fps=0.4 q=30.8 size=    1024KiB time=00:00:02.33 bitrate=3595.3kbits/s speed=0.0123x elapsed=0:03:09.87    \nframe=   72 fps=0.4 q=30.8 size=    1024KiB time=00:00:02.33 bitrate=3595.3kbits/s speed=0.0123x elapsed=0:03:10.38    \nframe=   72 fps=0.4 q=30.8 size=    1024KiB time=00:00:02.33 bitrate=3595.3kbits/s speed=0.0122x elapsed=0:03:10.90    \nframe=   73 fps=0.4 q=26.4 size=    1024KiB time=00:00:02.36 bitrate=3544.6kbits/s speed=0.0124x elapsed=0:03:11.42    \nframe=   73 fps=0.4 q=26.4 size=    1024KiB time=00:00:02.36 bitrate=3544.6kbits/s speed=0.0123x elapsed=0:03:11.94    \nframe=   73 fps=0.4 q=26.4 size=    1024KiB time=00:00:02.36 bitrate=3544.6kbits/s speed=0.0123x elapsed=0:03:12.48    \nframe=   74 fps=0.4 q=28.6 size=    1024KiB time=00:00:02.40 bitrate=3495.4kbits/s speed=0.0124x elapsed=0:03:13.02    \nframe=   74 fps=0.4 q=28.6 size=    1024KiB time=00:00:02.40 bitrate=3495.4kbits/s speed=0.0124x elapsed=0:03:13.55    \nframe=   74 fps=0.4 q=28.6 size=    1024KiB time=00:00:02.40 bitrate=3495.4kbits/s speed=0.0124x elapsed=0:03:14.09    \nframe=   75 fps=0.4 q=30.4 size=    1024KiB time=00:00:02.43 bitrate=3447.5kbits/s speed=0.0125x elapsed=0:03:14.64    \nframe=   75 fps=0.4 q=30.4 size=    1024KiB time=00:00:02.43 bitrate=3447.5kbits/s speed=0.0125x elapsed=0:03:15.22    \nframe=   76 fps=0.4 q=30.5 size=    1024KiB time=00:00:02.46 bitrate=3400.9kbits/s speed=0.0126x elapsed=0:03:15.73    \nframe=   76 fps=0.4 q=30.5 size=    1024KiB time=00:00:02.46 bitrate=3400.9kbits/s speed=0.0126x elapsed=0:03:16.25    \nframe=   76 fps=0.4 q=30.5 size=    1024KiB time=00:00:02.46 bitrate=3400.9kbits/s speed=0.0125x elapsed=0:03:16.79    \nframe=   77 fps=0.4 q=26.4 size=    1024KiB time=00:00:02.50 bitrate=3355.6kbits/s speed=0.0127x elapsed=0:03:17.33    \nframe=   77 fps=0.4 q=26.4 size=    1024KiB time=00:00:02.50 bitrate=3355.6kbits/s speed=0.0126x elapsed=0:03:17.85    \nframe=   77 fps=0.4 q=26.4 size=    1024KiB time=00:00:02.50 bitrate=3355.6kbits/s speed=0.0126x elapsed=0:03:18.36    \nframe=   77 fps=0.4 q=26.4 size=    1024KiB time=00:00:02.50 bitrate=3355.6kbits/s speed=0.0126x elapsed=0:03:18.89    \nframe=   78 fps=0.4 q=28.7 size=    1024KiB time=00:00:02.53 bitrate=3311.4kbits/s speed=0.0127x elapsed=0:03:19.43    \nframe=   78 fps=0.4 q=28.7 size=    1024KiB time=00:00:02.53 bitrate=3311.4kbits/s speed=0.0127x elapsed=0:03:19.95    \nframe=   78 fps=0.4 q=28.7 size=    1024KiB time=00:00:02.53 bitrate=3311.4kbits/s speed=0.0126x elapsed=0:03:20.46    \nframe=   79 fps=0.4 q=30.4 size=    1024KiB time=00:00:02.56 bitrate=3268.4kbits/s speed=0.0128x elapsed=0:03:20.98    \nframe=   79 fps=0.4 q=30.4 size=    1024KiB time=00:00:02.56 bitrate=3268.4kbits/s speed=0.0127x elapsed=0:03:21.55    \nframe=   79 fps=0.4 q=30.4 size=    1024KiB time=00:00:02.56 bitrate=3268.4kbits/s speed=0.0127x elapsed=0:03:22.07    \nframe=   80 fps=0.4 q=30.5 size=    1024KiB time=00:00:02.60 bitrate=3226.5kbits/s speed=0.0128x elapsed=0:03:22.60    \nframe=   80 fps=0.4 q=30.5 size=    1024KiB time=00:00:02.60 bitrate=3226.5kbits/s speed=0.0128x elapsed=0:03:23.13    \nframe=   80 fps=0.4 q=30.5 size=    1024KiB time=00:00:02.60 bitrate=3226.5kbits/s speed=0.0128x elapsed=0:03:23.64    \nframe=   80 fps=0.4 q=30.5 size=    1024KiB time=00:00:02.60 bitrate=3226.5kbits/s speed=0.0127x elapsed=0:03:24.17    \nframe=   81 fps=0.4 q=26.8 size=    1024KiB time=00:00:02.63 bitrate=3185.7kbits/s speed=0.0129x elapsed=0:03:24.69    \nframe=   81 fps=0.4 q=26.8 size=    1024KiB time=00:00:02.63 bitrate=3185.7kbits/s speed=0.0128x elapsed=0:03:25.21    \nframe=   81 fps=0.4 q=26.8 size=    1024KiB time=00:00:02.63 bitrate=3185.7kbits/s speed=0.0128x elapsed=0:03:25.73    \nframe=   81 fps=0.4 q=26.8 size=    1024KiB time=00:00:02.63 bitrate=3185.7kbits/s speed=0.0128x elapsed=0:03:26.26    \nframe=   82 fps=0.4 q=28.8 size=    1024KiB time=00:00:02.66 bitrate=3145.9kbits/s speed=0.0129x elapsed=0:03:26.79    \nframe=   82 fps=0.4 q=28.8 size=    1024KiB time=00:00:02.66 bitrate=3145.9kbits/s speed=0.0129x elapsed=0:03:27.30    \nframe=   82 fps=0.4 q=28.8 size=    1024KiB time=00:00:02.66 bitrate=3145.9kbits/s speed=0.0128x elapsed=0:03:27.82    \nframe=   83 fps=0.4 q=30.8 size=    1280KiB time=00:00:02.70 bitrate=3883.7kbits/s speed=0.013x elapsed=0:03:28.36    \nframe=   83 fps=0.4 q=30.8 size=    1280KiB time=00:00:02.70 bitrate=3883.7kbits/s speed=0.0129x elapsed=0:03:28.86    \nframe=   84 fps=0.4 q=30.7 size=    1280KiB time=00:00:02.73 bitrate=3836.4kbits/s speed=0.0131x elapsed=0:03:29.38    \nframe=   84 fps=0.4 q=30.7 size=    1280KiB time=00:00:02.73 bitrate=3836.4kbits/s speed=0.013x elapsed=0:03:29.89    \nframe=   84 fps=0.4 q=30.7 size=    1280KiB time=00:00:02.73 bitrate=3836.4kbits/s speed=0.013x elapsed=0:03:30.43    \nframe=   84 fps=0.4 q=30.7 size=    1280KiB time=00:00:02.73 bitrate=3836.4kbits/s speed=0.013x elapsed=0:03:30.97    \nframe=   85 fps=0.4 q=26.8 size=    1280KiB time=00:00:02.76 bitrate=3790.2kbits/s speed=0.0131x elapsed=0:03:31.52    \nframe=   85 fps=0.4 q=26.8 size=    1280KiB time=00:00:02.76 bitrate=3790.2kbits/s speed=0.013x elapsed=0:03:32.11    \nframe=   85 fps=0.4 q=26.8 size=    1280KiB time=00:00:02.76 bitrate=3790.2kbits/s speed=0.013x elapsed=0:03:32.70    \nframe=   85 fps=0.4 q=26.8 size=    1280KiB time=00:00:02.76 bitrate=3790.2kbits/s speed=0.013x elapsed=0:03:33.24    \nframe=   85 fps=0.4 q=26.8 size=    1280KiB time=00:00:02.76 bitrate=3790.2kbits/s speed=0.0129x elapsed=0:03:33.79    \nframe=   85 fps=0.4 q=26.8 size=    1280KiB time=00:00:02.76 bitrate=3790.2kbits/s speed=0.0129x elapsed=0:03:34.34    \nframe=   85 fps=0.4 q=26.8 size=    1280KiB time=00:00:02.76 bitrate=3790.2kbits/s speed=0.0129x elapsed=0:03:34.87    \nframe=   85 fps=0.4 q=26.8 size=    1280KiB time=00:00:02.76 bitrate=3790.2kbits/s speed=0.0128x elapsed=0:03:35.41    \nframe=   86 fps=0.4 q=30.9 size=    1280KiB time=00:00:02.80 bitrate=3745.0kbits/s speed=0.013x elapsed=0:03:35.93    \nframe=   86 fps=0.4 q=30.9 size=    1280KiB time=00:00:02.80 bitrate=3745.0kbits/s speed=0.0129x elapsed=0:03:36.48    \nframe=   87 fps=0.4 q=26.6 size=    1280KiB time=00:00:02.83 bitrate=3701.0kbits/s speed=0.0131x elapsed=0:03:37.01    \nframe=   87 fps=0.4 q=26.6 size=    1280KiB time=00:00:02.83 bitrate=3701.0kbits/s speed=0.013x elapsed=0:03:37.52    \nframe=   88 fps=0.4 q=28.8 size=    1280KiB time=00:00:02.86 bitrate=3657.9kbits/s speed=0.0131x elapsed=0:03:38.04    \nframe=   88 fps=0.4 q=28.8 size=    1280KiB time=00:00:02.86 bitrate=3657.9kbits/s speed=0.0131x elapsed=0:03:38.56    \nframe=   89 fps=0.4 q=30.6 size=    1280KiB time=00:00:02.90 bitrate=3615.9kbits/s speed=0.0132x elapsed=0:03:39.08    \nframe=   90 fps=0.4 q=30.5 size=    1280KiB time=00:00:02.93 bitrate=3574.8kbits/s speed=0.0134x elapsed=0:03:39.58    \nframe=   90 fps=0.4 q=30.5 size=    1280KiB time=00:00:02.93 bitrate=3574.8kbits/s speed=0.0133x elapsed=0:03:40.10    \nframe=   91 fps=0.4 q=26.7 size=    1280KiB time=00:00:02.96 bitrate=3534.6kbits/s speed=0.0134x elapsed=0:03:40.61    \nframe=   92 fps=0.4 q=27.9 size=    1280KiB time=00:00:03.00 bitrate=3495.4kbits/s speed=0.0136x elapsed=0:03:41.14    \nframe=   92 fps=0.4 q=27.9 size=    1280KiB time=00:00:03.00 bitrate=3495.4kbits/s speed=0.0135x elapsed=0:03:41.68    \nframe=   92 fps=0.4 q=27.9 size=    1280KiB time=00:00:03.00 bitrate=3495.4kbits/s speed=0.0135x elapsed=0:03:42.25    \nframe=   92 fps=0.4 q=27.9 size=    1280KiB time=00:00:03.00 bitrate=3495.4kbits/s speed=0.0135x elapsed=0:03:42.77    \nframe=   92 fps=0.4 q=27.9 size=    1280KiB time=00:00:03.00 bitrate=3495.4kbits/s speed=0.0134x elapsed=0:03:43.30    \nframe=   93 fps=0.4 q=30.6 size=    1280KiB time=00:00:03.03 bitrate=3457.0kbits/s speed=0.0136x elapsed=0:03:43.82    \nframe=   93 fps=0.4 q=30.6 size=    1280KiB time=00:00:03.03 bitrate=3457.0kbits/s speed=0.0135x elapsed=0:03:44.35    \nframe=   93 fps=0.4 q=30.6 size=    1280KiB time=00:00:03.03 bitrate=3457.0kbits/s speed=0.0135x elapsed=0:03:44.87    \nframe=   93 fps=0.4 q=30.6 size=    1280KiB time=00:00:03.03 bitrate=3457.0kbits/s speed=0.0135x elapsed=0:03:45.38    \nframe=   93 fps=0.4 q=30.6 size=    1280KiB time=00:00:03.03 bitrate=3457.0kbits/s speed=0.0134x elapsed=0:03:45.93    \nframe=   94 fps=0.4 q=26.7 size=    1280KiB time=00:00:03.06 bitrate=3419.4kbits/s speed=0.0135x elapsed=0:03:46.47    \nframe=   94 fps=0.4 q=26.7 size=    1280KiB time=00:00:03.06 bitrate=3419.4kbits/s speed=0.0135x elapsed=0:03:47.03    \nframe=   95 fps=0.4 q=29.3 size=    1280KiB time=00:00:03.10 bitrate=3382.6kbits/s speed=0.0136x elapsed=0:03:47.58    \nframe=   95 fps=0.4 q=29.3 size=    1280KiB time=00:00:03.10 bitrate=3382.6kbits/s speed=0.0136x elapsed=0:03:48.20    \nframe=   95 fps=0.4 q=29.3 size=    1280KiB time=00:00:03.10 bitrate=3382.6kbits/s speed=0.0135x elapsed=0:03:48.79    \nframe=   95 fps=0.4 q=29.3 size=    1280KiB time=00:00:03.10 bitrate=3382.6kbits/s speed=0.0135x elapsed=0:03:49.34    \nframe=   96 fps=0.4 q=30.9 size=    1536KiB time=00:00:03.13 bitrate=4015.9kbits/s speed=0.0136x elapsed=0:03:49.87    \nframe=   96 fps=0.4 q=30.9 size=    1536KiB time=00:00:03.13 bitrate=4015.9kbits/s speed=0.0136x elapsed=0:03:50.38    \nframe=   96 fps=0.4 q=30.9 size=    1536KiB time=00:00:03.13 bitrate=4015.9kbits/s speed=0.0136x elapsed=0:03:50.92    \nframe=   96 fps=0.4 q=30.9 size=    1536KiB time=00:00:03.13 bitrate=4015.9kbits/s speed=0.0135x elapsed=0:03:51.47    \nframe=   96 fps=0.4 q=30.9 size=    1536KiB time=00:00:03.13 bitrate=4015.9kbits/s speed=0.0135x elapsed=0:03:52.04    \nframe=   97 fps=0.4 q=31.1 size=    1536KiB time=00:00:03.16 bitrate=3973.7kbits/s speed=0.0136x elapsed=0:03:52.58    \nframe=   97 fps=0.4 q=31.1 size=    1536KiB time=00:00:03.16 bitrate=3973.7kbits/s speed=0.0136x elapsed=0:03:53.11    \nframe=   97 fps=0.4 q=31.1 size=    1536KiB time=00:00:03.16 bitrate=3973.7kbits/s speed=0.0136x elapsed=0:03:53.66    \nframe=   97 fps=0.4 q=31.1 size=    1536KiB time=00:00:03.16 bitrate=3973.7kbits/s speed=0.0135x elapsed=0:03:54.22    \nframe=   97 fps=0.4 q=31.1 size=    1536KiB time=00:00:03.16 bitrate=3973.7kbits/s speed=0.0135x elapsed=0:03:54.76    \nframe=   97 fps=0.4 q=31.1 size=    1536KiB time=00:00:03.16 bitrate=3973.7kbits/s speed=0.0135x elapsed=0:03:55.32    \nframe=   97 fps=0.4 q=31.1 size=    1536KiB time=00:00:03.16 bitrate=3973.7kbits/s speed=0.0134x elapsed=0:03:55.87    \nframe=   97 fps=0.4 q=31.1 size=    1536KiB time=00:00:03.16 bitrate=3973.7kbits/s speed=0.0134x elapsed=0:03:56.42    \nframe=   97 fps=0.4 q=31.1 size=    1536KiB time=00:00:03.16 bitrate=3973.7kbits/s speed=0.0134x elapsed=0:03:56.97    \nframe=   97 fps=0.4 q=31.1 size=    1536KiB time=00:00:03.16 bitrate=3973.7kbits/s speed=0.0133x elapsed=0:03:57.51    \nframe=   97 fps=0.4 q=31.1 size=    1536KiB time=00:00:03.16 bitrate=3973.7kbits/s speed=0.0133x elapsed=0:03:58.04    \nframe=   98 fps=0.4 q=27.3 size=    1536KiB time=00:00:03.20 bitrate=3932.3kbits/s speed=0.0134x elapsed=0:03:58.57    \nframe=   98 fps=0.4 q=27.3 size=    1536KiB time=00:00:03.20 bitrate=3932.3kbits/s speed=0.0134x elapsed=0:03:59.11    \nframe=   99 fps=0.4 q=29.4 size=    1536KiB time=00:00:03.23 bitrate=3891.7kbits/s speed=0.0135x elapsed=0:03:59.66    \nframe=   99 fps=0.4 q=29.4 size=    1536KiB time=00:00:03.23 bitrate=3891.7kbits/s speed=0.0135x elapsed=0:04:00.22    \nframe=   99 fps=0.4 q=29.4 size=    1536KiB time=00:00:03.23 bitrate=3891.7kbits/s speed=0.0134x elapsed=0:04:00.75    \nframe=   99 fps=0.4 q=29.4 size=    1536KiB time=00:00:03.23 bitrate=3891.7kbits/s speed=0.0134x elapsed=0:04:01.28    \nframe=   99 fps=0.4 q=29.4 size=    1536KiB time=00:00:03.23 bitrate=3891.7kbits/s speed=0.0134x elapsed=0:04:01.80    \nframe=   99 fps=0.4 q=29.4 size=    1536KiB time=00:00:03.23 bitrate=3891.7kbits/s speed=0.0133x elapsed=0:04:02.32    \nframe=   99 fps=0.4 q=29.4 size=    1536KiB time=00:00:03.23 bitrate=3891.7kbits/s speed=0.0133x elapsed=0:04:02.87    \nframe=   99 fps=0.4 q=29.4 size=    1536KiB time=00:00:03.23 bitrate=3891.7kbits/s speed=0.0133x elapsed=0:04:03.42    \nframe=  100 fps=0.4 q=31.4 size=    1536KiB time=00:00:03.26 bitrate=3852.0kbits/s speed=0.0134x elapsed=0:04:03.99    \nframe=  100 fps=0.4 q=31.4 size=    1536KiB time=00:00:03.26 bitrate=3852.0kbits/s speed=0.0134x elapsed=0:04:04.52    \nframe=  100 fps=0.4 q=31.4 size=    1536KiB time=00:00:03.26 bitrate=3852.0kbits/s speed=0.0133x elapsed=0:04:05.05    \nframe=  100 fps=0.4 q=31.4 size=    1536KiB time=00:00:03.26 bitrate=3852.0kbits/s speed=0.0133x elapsed=0:04:05.60    \nframe=  100 fps=0.4 q=31.4 size=    1536KiB time=00:00:03.26 bitrate=3852.0kbits/s speed=0.0133x elapsed=0:04:06.15    \nframe=  100 fps=0.4 q=31.4 size=    1536KiB time=00:00:03.26 bitrate=3852.0kbits/s speed=0.0132x elapsed=0:04:06.69    \nframe=  100 fps=0.4 q=31.4 size=    1536KiB time=00:00:03.26 bitrate=3852.0kbits/s speed=0.0132x elapsed=0:04:07.24    \nframe=  101 fps=0.4 q=31.7 size=    1536KiB time=00:00:03.30 bitrate=3813.1kbits/s speed=0.0133x elapsed=0:04:07.79    \nframe=  101 fps=0.4 q=31.7 size=    1536KiB time=00:00:03.30 bitrate=3813.1kbits/s speed=0.0133x elapsed=0:04:08.31    \nframe=  101 fps=0.4 q=31.7 size=    1536KiB time=00:00:03.30 bitrate=3813.1kbits/s speed=0.0133x elapsed=0:04:08.87    \nframe=  101 fps=0.4 q=31.7 size=    1536KiB time=00:00:03.30 bitrate=3813.1kbits/s speed=0.0132x elapsed=0:04:09.43    \nframe=  102 fps=0.4 q=27.0 size=    1536KiB time=00:00:03.33 bitrate=3775.0kbits/s speed=0.0133x elapsed=0:04:09.99    \nframe=  102 fps=0.4 q=27.0 size=    1536KiB time=00:00:03.33 bitrate=3775.0kbits/s speed=0.0133x elapsed=0:04:10.52    \nframe=  102 fps=0.4 q=27.0 size=    1536KiB time=00:00:03.33 bitrate=3775.0kbits/s speed=0.0133x elapsed=0:04:11.07    \nframe=  102 fps=0.4 q=27.0 size=    1536KiB time=00:00:03.33 bitrate=3775.0kbits/s speed=0.0132x elapsed=0:04:11.64    \nframe=  102 fps=0.4 q=27.0 size=    1536KiB time=00:00:03.33 bitrate=3775.0kbits/s speed=0.0132x elapsed=0:04:12.18    \nframe=  102 fps=0.4 q=27.0 size=    1536KiB time=00:00:03.33 bitrate=3775.0kbits/s speed=0.0132x elapsed=0:04:12.74    \nframe=  102 fps=0.4 q=27.0 size=    1536KiB time=00:00:03.33 bitrate=3775.0kbits/s speed=0.0132x elapsed=0:04:13.31    \nframe=  102 fps=0.4 q=27.0 size=    1536KiB time=00:00:03.33 bitrate=3775.0kbits/s speed=0.0131x elapsed=0:04:13.84    \nframe=  102 fps=0.4 q=27.0 size=    1536KiB time=00:00:03.33 bitrate=3775.0kbits/s speed=0.0131x elapsed=0:04:14.38    \nframe=  102 fps=0.4 q=27.0 size=    1536KiB time=00:00:03.33 bitrate=3775.0kbits/s speed=0.0131x elapsed=0:04:14.95    \nframe=  103 fps=0.4 q=29.6 size=    1536KiB time=00:00:03.36 bitrate=3737.6kbits/s speed=0.0132x elapsed=0:04:15.49    \nframe=  103 fps=0.4 q=29.6 size=    1536KiB time=00:00:03.36 bitrate=3737.6kbits/s speed=0.0131x elapsed=0:04:16.05    \nframe=  103 fps=0.4 q=29.6 size=    1536KiB time=00:00:03.36 bitrate=3737.6kbits/s speed=0.0131x elapsed=0:04:16.61    \nframe=  103 fps=0.4 q=29.6 size=    1536KiB time=00:00:03.36 bitrate=3737.6kbits/s speed=0.0131x elapsed=0:04:17.15    \nframe=  103 fps=0.4 q=29.6 size=    1536KiB time=00:00:03.36 bitrate=3737.6kbits/s speed=0.0131x elapsed=0:04:17.69    \nframe=  103 fps=0.4 q=29.6 size=    1536KiB time=00:00:03.36 bitrate=3737.6kbits/s speed=0.013x elapsed=0:04:18.24    \nframe=  103 fps=0.4 q=29.6 size=    1536KiB time=00:00:03.36 bitrate=3737.6kbits/s speed=0.013x elapsed=0:04:18.77    \nframe=  104 fps=0.4 q=31.4 size=    1536KiB time=00:00:03.40 bitrate=3701.0kbits/s speed=0.0131x elapsed=0:04:19.33    \nframe=  104 fps=0.4 q=31.4 size=    1536KiB time=00:00:03.40 bitrate=3701.0kbits/s speed=0.0131x elapsed=0:04:19.86    \nframe=  104 fps=0.4 q=31.4 size=    1536KiB time=00:00:03.40 bitrate=3701.0kbits/s speed=0.0131x elapsed=0:04:20.39    \nframe=  104 fps=0.4 q=31.4 size=    1536KiB time=00:00:03.40 bitrate=3701.0kbits/s speed=0.013x elapsed=0:04:20.92    \nframe=  104 fps=0.4 q=31.4 size=    1536KiB time=00:00:03.40 bitrate=3701.0kbits/s speed=0.013x elapsed=0:04:21.47    \nframe=  105 fps=0.4 q=26.9 size=    1536KiB time=00:00:03.43 bitrate=3665.0kbits/s speed=0.0131x elapsed=0:04:21.99    \nframe=  105 fps=0.4 q=26.9 size=    1536KiB time=00:00:03.43 bitrate=3665.0kbits/s speed=0.0131x elapsed=0:04:22.59    \nframe=  105 fps=0.4 q=26.9 size=    1536KiB time=00:00:03.43 bitrate=3665.0kbits/s speed=0.013x elapsed=0:04:23.16    \nframe=  105 fps=0.4 q=26.9 size=    1536KiB time=00:00:03.43 bitrate=3665.0kbits/s speed=0.013x elapsed=0:04:23.77    \nframe=  105 fps=0.4 q=26.9 size=    1536KiB time=00:00:03.43 bitrate=3665.0kbits/s speed=0.013x elapsed=0:04:24.35    \nframe=  105 fps=0.4 q=26.9 size=    1536KiB time=00:00:03.43 bitrate=3665.0kbits/s speed=0.013x elapsed=0:04:24.93    \nframe=  105 fps=0.4 q=26.9 size=    1536KiB time=00:00:03.43 bitrate=3665.0kbits/s speed=0.0129x elapsed=0:04:25.59    \nframe=  105 fps=0.4 q=26.9 size=    1536KiB time=00:00:03.43 bitrate=3665.0kbits/s speed=0.0129x elapsed=0:04:26.20    \nframe=  105 fps=0.4 q=26.9 size=    1536KiB time=00:00:03.43 bitrate=3665.0kbits/s speed=0.0129x elapsed=0:04:26.84    \nframe=  105 fps=0.4 q=26.9 size=    1536KiB time=00:00:03.43 bitrate=3665.0kbits/s speed=0.0128x elapsed=0:04:27.43    \nframe=  105 fps=0.4 q=26.9 size=    1536KiB time=00:00:03.43 bitrate=3665.0kbits/s speed=0.0128x elapsed=0:04:28.08    \nframe=  105 fps=0.4 q=26.9 size=    1536KiB time=00:00:03.43 bitrate=3665.0kbits/s speed=0.0128x elapsed=0:04:28.73    \nframe=  105 fps=0.4 q=26.9 size=    1536KiB time=00:00:03.43 bitrate=3665.0kbits/s speed=0.0127x elapsed=0:04:29.38    \nframe=  106 fps=0.4 q=28.4 size=    1536KiB time=00:00:03.46 bitrate=3629.8kbits/s speed=0.0128x elapsed=0:04:29.96    \nframe=  106 fps=0.4 q=28.4 size=    1536KiB time=00:00:03.46 bitrate=3629.8kbits/s speed=0.0128x elapsed=0:04:30.49    \nframe=  106 fps=0.4 q=28.4 size=    1536KiB time=00:00:03.46 bitrate=3629.8kbits/s speed=0.0128x elapsed=0:04:31.01    \nframe=  106 fps=0.4 q=28.4 size=    1536KiB time=00:00:03.46 bitrate=3629.8kbits/s speed=0.0128x elapsed=0:04:31.55    \nframe=  106 fps=0.4 q=28.4 size=    1536KiB time=00:00:03.46 bitrate=3629.8kbits/s speed=0.0127x elapsed=0:04:32.11    \nframe=  106 fps=0.4 q=28.4 size=    1536KiB time=00:00:03.46 bitrate=3629.8kbits/s speed=0.0127x elapsed=0:04:32.68    \nframe=  106 fps=0.4 q=28.4 size=    1536KiB time=00:00:03.46 bitrate=3629.8kbits/s speed=0.0127x elapsed=0:04:33.23    \nframe=  107 fps=0.4 q=31.3 size=    1536KiB time=00:00:03.50 bitrate=3595.2kbits/s speed=0.0128x elapsed=0:04:33.75    \nframe=  107 fps=0.4 q=31.3 size=    1536KiB time=00:00:03.50 bitrate=3595.2kbits/s speed=0.0128x elapsed=0:04:34.28    \nframe=  108 fps=0.4 q=26.9 size=    1536KiB time=00:00:03.53 bitrate=3561.3kbits/s speed=0.0129x elapsed=0:04:34.80    \nframe=  108 fps=0.4 q=26.9 size=    1536KiB time=00:00:03.53 bitrate=3561.3kbits/s speed=0.0128x elapsed=0:04:35.32    \nframe=  109 fps=0.4 q=29.7 size=    1536KiB time=00:00:03.56 bitrate=3528.0kbits/s speed=0.0129x elapsed=0:04:35.84    \nframe=  109 fps=0.4 q=29.7 size=    1536KiB time=00:00:03.56 bitrate=3528.0kbits/s speed=0.0129x elapsed=0:04:36.36    \nframe=  109 fps=0.4 q=29.7 size=    1536KiB time=00:00:03.56 bitrate=3528.0kbits/s speed=0.0129x elapsed=0:04:36.88    \nframe=  110 fps=0.4 q=31.6 size=    1792KiB time=00:00:03.60 bitrate=4077.9kbits/s speed=0.013x elapsed=0:04:37.39    \nframe=  110 fps=0.4 q=31.6 size=    1792KiB time=00:00:03.60 bitrate=4077.9kbits/s speed=0.013x elapsed=0:04:37.92    \nframe=  110 fps=0.4 q=31.6 size=    1792KiB time=00:00:03.60 bitrate=4077.9kbits/s speed=0.0129x elapsed=0:04:38.49    \nframe=  111 fps=0.4 q=31.9 size=    1792KiB time=00:00:03.63 bitrate=4040.5kbits/s speed=0.013x elapsed=0:04:39.01    \nframe=  112 fps=0.4 q=27.1 size=    1792KiB time=00:00:03.66 bitrate=4003.7kbits/s speed=0.0131x elapsed=0:04:39.57    \nframe=  112 fps=0.4 q=27.1 size=    1792KiB time=00:00:03.66 bitrate=4003.7kbits/s speed=0.0131x elapsed=0:04:40.08    \nframe=  112 fps=0.4 q=27.1 size=    1792KiB time=00:00:03.66 bitrate=4003.7kbits/s speed=0.0131x elapsed=0:04:40.60    \nframe=  113 fps=0.4 q=29.5 size=    1792KiB time=00:00:03.70 bitrate=3967.7kbits/s speed=0.0132x elapsed=0:04:41.12    \nframe=  113 fps=0.4 q=29.5 size=    1792KiB time=00:00:03.70 bitrate=3967.7kbits/s speed=0.0131x elapsed=0:04:41.63    \nframe=  113 fps=0.4 q=29.5 size=    1792KiB time=00:00:03.70 bitrate=3967.7kbits/s speed=0.0131x elapsed=0:04:42.15    \nframe=  113 fps=0.4 q=29.5 size=    1792KiB time=00:00:03.70 bitrate=3967.7kbits/s speed=0.0131x elapsed=0:04:42.67    \nframe=  114 fps=0.4 q=31.7 size=    1792KiB time=00:00:03.73 bitrate=3932.3kbits/s speed=0.0132x elapsed=0:04:43.20    \nframe=  114 fps=0.4 q=31.7 size=    1792KiB time=00:00:03.73 bitrate=3932.3kbits/s speed=0.0132x elapsed=0:04:43.72    \nframe=  114 fps=0.4 q=31.7 size=    1792KiB time=00:00:03.73 bitrate=3932.3kbits/s speed=0.0131x elapsed=0:04:44.24    \nframe=  115 fps=0.4 q=31.5 size=    1792KiB time=00:00:03.76 bitrate=3897.5kbits/s speed=0.0132x elapsed=0:04:44.76    \nframe=  115 fps=0.4 q=31.5 size=    1792KiB time=00:00:03.76 bitrate=3897.5kbits/s speed=0.0132x elapsed=0:04:45.27    \nframe=  116 fps=0.4 q=27.4 size=    1792KiB time=00:00:03.80 bitrate=3863.3kbits/s speed=0.0133x elapsed=0:04:45.80    \nframe=  116 fps=0.4 q=27.4 size=    1792KiB time=00:00:03.80 bitrate=3863.3kbits/s speed=0.0133x elapsed=0:04:46.32    \nframe=  117 fps=0.4 q=29.5 size=    1792KiB time=00:00:03.83 bitrate=3829.7kbits/s speed=0.0134x elapsed=0:04:46.86    \nframe=  117 fps=0.4 q=29.5 size=    1792KiB time=00:00:03.83 bitrate=3829.7kbits/s speed=0.0133x elapsed=0:04:47.38    \nframe=  117 fps=0.4 q=29.5 size=    1792KiB time=00:00:03.83 bitrate=3829.7kbits/s speed=0.0133x elapsed=0:04:47.91    \nframe=  118 fps=0.4 q=31.5 size=    1792KiB time=00:00:03.86 bitrate=3796.7kbits/s speed=0.0134x elapsed=0:04:48.43    \nframe=  118 fps=0.4 q=31.5 size=    1792KiB time=00:00:03.86 bitrate=3796.7kbits/s speed=0.0134x elapsed=0:04:48.95    \nframe=  118 fps=0.4 q=31.5 size=    1792KiB time=00:00:03.86 bitrate=3796.7kbits/s speed=0.0134x elapsed=0:04:49.45    \nframe=  118 fps=0.4 q=31.5 size=    1792KiB time=00:00:03.86 bitrate=3796.7kbits/s speed=0.0133x elapsed=0:04:49.99    \nframe=  119 fps=0.4 q=31.5 size=    1792KiB time=00:00:03.90 bitrate=3764.2kbits/s speed=0.0134x elapsed=0:04:50.53    \nframe=  119 fps=0.4 q=31.5 size=    1792KiB time=00:00:03.90 bitrate=3764.2kbits/s speed=0.0134x elapsed=0:04:51.03    \nframe=  119 fps=0.4 q=31.5 size=    1792KiB time=00:00:03.90 bitrate=3764.2kbits/s speed=0.0134x elapsed=0:04:51.56    \nframe=  119 fps=0.4 q=31.5 size=    1792KiB time=00:00:03.90 bitrate=3764.2kbits/s speed=0.0134x elapsed=0:04:52.09    \nframe=  119 fps=0.4 q=31.5 size=    1792KiB time=00:00:03.90 bitrate=3764.2kbits/s speed=0.0133x elapsed=0:04:52.62    \nframe=  119 fps=0.4 q=31.5 size=    1792KiB time=00:00:03.90 bitrate=3764.2kbits/s speed=0.0133x elapsed=0:04:53.14    \nframe=  120 fps=0.4 q=27.1 size=    1792KiB time=00:00:03.93 bitrate=3732.3kbits/s speed=0.0134x elapsed=0:04:53.68    \nframe=  120 fps=0.4 q=27.1 size=    1792KiB time=00:00:03.93 bitrate=3732.3kbits/s speed=0.0134x elapsed=0:04:54.24    \nframe=  121 fps=0.4 q=31.7 size=    1792KiB time=00:00:03.96 bitrate=3700.9kbits/s speed=0.0135x elapsed=0:04:54.77    \nframe=  121 fps=0.4 q=31.7 size=    1792KiB time=00:00:03.96 bitrate=3700.9kbits/s speed=0.0134x elapsed=0:04:55.29    \nframe=  121 fps=0.4 q=31.7 size=    1792KiB time=00:00:03.96 bitrate=3700.9kbits/s speed=0.0134x elapsed=0:04:55.82    \nframe=  122 fps=0.4 q=26.8 size=    1792KiB time=00:00:04.00 bitrate=3670.1kbits/s speed=0.0135x elapsed=0:04:56.35    \nframe=  122 fps=0.4 q=26.8 size=    1792KiB time=00:00:04.00 bitrate=3670.1kbits/s speed=0.0135x elapsed=0:04:56.90    \nframe=  122 fps=0.4 q=26.8 size=    1792KiB time=00:00:04.00 bitrate=3670.1kbits/s speed=0.0134x elapsed=0:04:57.42    \nframe=  122 fps=0.4 q=26.8 size=    1792KiB time=00:00:04.00 bitrate=3670.1kbits/s speed=0.0134x elapsed=0:04:57.95    \nframe=  122 fps=0.4 q=26.8 size=    1792KiB time=00:00:04.00 bitrate=3670.1kbits/s speed=0.0134x elapsed=0:04:58.48    \nframe=  122 fps=0.4 q=26.8 size=    1792KiB time=00:00:04.00 bitrate=3670.1kbits/s speed=0.0134x elapsed=0:04:59.02    \nframe=  122 fps=0.4 q=26.8 size=    1792KiB time=00:00:04.00 bitrate=3670.1kbits/s speed=0.0134x elapsed=0:04:59.54    \nframe=  123 fps=0.4 q=29.8 size=    1792KiB time=00:00:04.03 bitrate=3639.8kbits/s speed=0.0134x elapsed=0:05:00.08    \nframe=  124 fps=0.4 q=32.0 size=    1792KiB time=00:00:04.06 bitrate=3609.9kbits/s speed=0.0135x elapsed=0:05:00.64    \nframe=  124 fps=0.4 q=32.0 size=    1792KiB time=00:00:04.06 bitrate=3609.9kbits/s speed=0.0135x elapsed=0:05:01.20    \nframe=  124 fps=0.4 q=32.0 size=    1792KiB time=00:00:04.06 bitrate=3609.9kbits/s speed=0.0135x elapsed=0:05:01.79    \nframe=  124 fps=0.4 q=32.0 size=    1792KiB time=00:00:04.06 bitrate=3609.9kbits/s speed=0.0134x elapsed=0:05:02.38    \nframe=  124 fps=0.4 q=32.0 size=    1792KiB time=00:00:04.06 bitrate=3609.9kbits/s speed=0.0134x elapsed=0:05:03.01    \nframe=  124 fps=0.4 q=32.0 size=    1792KiB time=00:00:04.06 bitrate=3609.9kbits/s speed=0.0134x elapsed=0:05:03.54    \nframe=  124 fps=0.4 q=32.0 size=    1792KiB time=00:00:04.06 bitrate=3609.9kbits/s speed=0.0134x elapsed=0:05:04.08    \nframe=  125 fps=0.4 q=31.7 size=    2048KiB time=00:00:04.10 bitrate=4092.1kbits/s speed=0.0135x elapsed=0:05:04.61    \nframe=  125 fps=0.4 q=31.7 size=    2048KiB time=00:00:04.10 bitrate=4092.1kbits/s speed=0.0134x elapsed=0:05:05.13    \nframe=  125 fps=0.4 q=31.7 size=    2048KiB time=00:00:04.10 bitrate=4092.1kbits/s speed=0.0134x elapsed=0:05:05.68    \nframe=  125 fps=0.4 q=31.7 size=    2048KiB time=00:00:04.10 bitrate=4092.1kbits/s speed=0.0134x elapsed=0:05:06.21    \nframe=  125 fps=0.4 q=31.7 size=    2048KiB time=00:00:04.10 bitrate=4092.1kbits/s speed=0.0134x elapsed=0:05:06.73    \nframe=  125 fps=0.4 q=31.7 size=    2048KiB time=00:00:04.10 bitrate=4092.1kbits/s speed=0.0133x elapsed=0:05:07.27    \nframe=  125 fps=0.4 q=31.7 size=    2048KiB time=00:00:04.10 bitrate=4092.1kbits/s speed=0.0133x elapsed=0:05:07.80    \nframe=  125 fps=0.4 q=31.7 size=    2048KiB time=00:00:04.10 bitrate=4092.1kbits/s speed=0.0133x elapsed=0:05:08.38    \nframe=  125 fps=0.4 q=31.7 size=    2048KiB time=00:00:04.10 bitrate=4092.1kbits/s speed=0.0133x elapsed=0:05:08.93    \nframe=  125 fps=0.4 q=31.7 size=    2048KiB time=00:00:04.10 bitrate=4092.1kbits/s speed=0.0132x elapsed=0:05:09.48    \nframe=  125 fps=0.4 q=31.7 size=    2048KiB time=00:00:04.10 bitrate=4092.1kbits/s speed=0.0132x elapsed=0:05:10.02    \nframe=  125 fps=0.4 q=31.7 size=    2048KiB time=00:00:04.10 bitrate=4092.1kbits/s speed=0.0132x elapsed=0:05:10.57    \nframe=  126 fps=0.4 q=27.0 size=    2048KiB time=00:00:04.13 bitrate=4059.1kbits/s speed=0.0133x elapsed=0:05:11.10    \nframe=  126 fps=0.4 q=27.0 size=    2048KiB time=00:00:04.13 bitrate=4059.1kbits/s speed=0.0133x elapsed=0:05:11.66    \nframe=  127 fps=0.4 q=29.7 size=    2048KiB time=00:00:04.16 bitrate=4026.6kbits/s speed=0.0133x elapsed=0:05:12.22    \nframe=  127 fps=0.4 q=29.7 size=    2048KiB time=00:00:04.16 bitrate=4026.6kbits/s speed=0.0133x elapsed=0:05:12.77    \nframe=  127 fps=0.4 q=29.7 size=    2048KiB time=00:00:04.16 bitrate=4026.6kbits/s speed=0.0133x elapsed=0:05:13.34    \nframe=  127 fps=0.4 q=29.7 size=    2048KiB time=00:00:04.16 bitrate=4026.6kbits/s speed=0.0133x elapsed=0:05:13.96    \nframe=  127 fps=0.4 q=29.7 size=    2048KiB time=00:00:04.16 bitrate=4026.6kbits/s speed=0.0132x elapsed=0:05:14.53    \nframe=  127 fps=0.4 q=29.7 size=    2048KiB time=00:00:04.16 bitrate=4026.6kbits/s speed=0.0132x elapsed=0:05:15.09    \nframe=  127 fps=0.4 q=29.7 size=    2048KiB time=00:00:04.16 bitrate=4026.6kbits/s speed=0.0132x elapsed=0:05:15.69    \nframe=  127 fps=0.4 q=29.7 size=    2048KiB time=00:00:04.16 bitrate=4026.6kbits/s speed=0.0132x elapsed=0:05:16.23    \nframe=  128 fps=0.4 q=31.6 size=    2048KiB time=00:00:04.20 bitrate=3994.7kbits/s speed=0.0133x elapsed=0:05:16.78    \nframe=  128 fps=0.4 q=31.6 size=    2048KiB time=00:00:04.20 bitrate=3994.7kbits/s speed=0.0132x elapsed=0:05:17.36    \nframe=  128 fps=0.4 q=31.6 size=    2048KiB time=00:00:04.20 bitrate=3994.7kbits/s speed=0.0132x elapsed=0:05:17.92    \nframe=  129 fps=0.4 q=31.8 size=    2048KiB time=00:00:04.23 bitrate=3963.2kbits/s speed=0.0133x elapsed=0:05:18.48    \nframe=  129 fps=0.4 q=31.8 size=    2048KiB time=00:00:04.23 bitrate=3963.2kbits/s speed=0.0133x elapsed=0:05:19.02    \nframe=  129 fps=0.4 q=31.8 size=    2048KiB time=00:00:04.23 bitrate=3963.2kbits/s speed=0.0132x elapsed=0:05:19.64    \nframe=  129 fps=0.4 q=31.8 size=    2048KiB time=00:00:04.23 bitrate=3963.2kbits/s speed=0.0132x elapsed=0:05:20.22    \nframe=  129 fps=0.4 q=31.8 size=    2048KiB time=00:00:04.23 bitrate=3963.2kbits/s speed=0.0132x elapsed=0:05:20.74    \nframe=  129 fps=0.4 q=31.8 size=    2048KiB time=00:00:04.23 bitrate=3963.2kbits/s speed=0.0132x elapsed=0:05:21.26    \nframe=  129 fps=0.4 q=31.8 size=    2048KiB time=00:00:04.23 bitrate=3963.2kbits/s speed=0.0132x elapsed=0:05:21.79    \nframe=  129 fps=0.4 q=31.8 size=    2048KiB time=00:00:04.23 bitrate=3963.2kbits/s speed=0.0131x elapsed=0:05:22.30    \nframe=  129 fps=0.4 q=31.8 size=    2048KiB time=00:00:04.23 bitrate=3963.2kbits/s speed=0.0131x elapsed=0:05:22.85    \nframe=  130 fps=0.4 q=27.0 size=    2048KiB time=00:00:04.26 bitrate=3932.2kbits/s speed=0.0132x elapsed=0:05:23.41    \nframe=  130 fps=0.4 q=27.0 size=    2048KiB time=00:00:04.26 bitrate=3932.2kbits/s speed=0.0132x elapsed=0:05:23.94    \nframe=  131 fps=0.4 q=29.9 size=    2048KiB time=00:00:04.30 bitrate=3901.8kbits/s speed=0.0133x elapsed=0:05:24.45    \nframe=  131 fps=0.4 q=29.9 size=    2048KiB time=00:00:04.30 bitrate=3901.8kbits/s speed=0.0132x elapsed=0:05:24.97    \nframe=  132 fps=0.4 q=31.9 size=    2048KiB time=00:00:04.33 bitrate=3871.7kbits/s speed=0.0133x elapsed=0:05:25.50    \nframe=  132 fps=0.4 q=31.9 size=    2048KiB time=00:00:04.33 bitrate=3871.7kbits/s speed=0.0133x elapsed=0:05:26.00    \nframe=  132 fps=0.4 q=31.9 size=    2048KiB time=00:00:04.33 bitrate=3871.7kbits/s speed=0.0133x elapsed=0:05:26.53    \nframe=  132 fps=0.4 q=31.9 size=    2048KiB time=00:00:04.33 bitrate=3871.7kbits/s speed=0.0132x elapsed=0:05:27.06    \nframe=  133 fps=0.4 q=32.2 size=    2048KiB time=00:00:04.36 bitrate=3842.2kbits/s speed=0.0133x elapsed=0:05:27.61    \nframe=  134 fps=0.4 q=27.3 size=    2048KiB time=00:00:04.40 bitrate=3813.1kbits/s speed=0.0134x elapsed=0:05:28.14    \nframe=  135 fps=0.4 q=29.9 size=    2048KiB time=00:00:04.43 bitrate=3784.4kbits/s speed=0.0135x elapsed=0:05:28.66    \nframe=  135 fps=0.4 q=29.9 size=    2048KiB time=00:00:04.43 bitrate=3784.4kbits/s speed=0.0135x elapsed=0:05:29.20    \nframe=  135 fps=0.4 q=29.9 size=    2048KiB time=00:00:04.43 bitrate=3784.4kbits/s speed=0.0134x elapsed=0:05:29.72    \nframe=  136 fps=0.4 q=31.8 size=    2048KiB time=00:00:04.46 bitrate=3756.2kbits/s speed=0.0135x elapsed=0:05:30.24    \nframe=  137 fps=0.4 q=32.0 size=    2048KiB time=00:00:04.50 bitrate=3728.3kbits/s speed=0.0136x elapsed=0:05:30.76    \nframe=  137 fps=0.4 q=32.0 size=    2048KiB time=00:00:04.50 bitrate=3728.3kbits/s speed=0.0136x elapsed=0:05:31.30    \nframe=  137 fps=0.4 q=32.0 size=    2048KiB time=00:00:04.50 bitrate=3728.3kbits/s speed=0.0136x elapsed=0:05:31.82    \nframe=  138 fps=0.4 q=27.0 size=    2048KiB time=00:00:04.53 bitrate=3700.9kbits/s speed=0.0136x elapsed=0:05:32.34    \nframe=  138 fps=0.4 q=27.0 size=    2048KiB time=00:00:04.53 bitrate=3700.9kbits/s speed=0.0136x elapsed=0:05:32.85    \nframe=  138 fps=0.4 q=27.0 size=    2048KiB time=00:00:04.53 bitrate=3700.9kbits/s speed=0.0136x elapsed=0:05:33.37    \nframe=  138 fps=0.4 q=27.0 size=    2048KiB time=00:00:04.53 bitrate=3700.9kbits/s speed=0.0136x elapsed=0:05:33.89    \nframe=  139 fps=0.4 q=29.8 size=    2048KiB time=00:00:04.56 bitrate=3673.9kbits/s speed=0.0137x elapsed=0:05:34.40    \nframe=  139 fps=0.4 q=29.8 size=    2048KiB time=00:00:04.56 bitrate=3673.9kbits/s speed=0.0136x elapsed=0:05:34.93    \nframe=  139 fps=0.4 q=29.8 size=    2048KiB time=00:00:04.56 bitrate=3673.9kbits/s speed=0.0136x elapsed=0:05:35.52    \nframe=  139 fps=0.4 q=29.8 size=    2048KiB time=00:00:04.56 bitrate=3673.9kbits/s speed=0.0136x elapsed=0:05:36.15    \nframe=  139 fps=0.4 q=29.8 size=    2048KiB time=00:00:04.56 bitrate=3673.9kbits/s speed=0.0136x elapsed=0:05:36.67    \nframe=  139 fps=0.4 q=29.8 size=    2048KiB time=00:00:04.56 bitrate=3673.9kbits/s speed=0.0135x elapsed=0:05:37.20    \nframe=  140 fps=0.4 q=31.9 size=    2048KiB time=00:00:04.60 bitrate=3647.3kbits/s speed=0.0136x elapsed=0:05:37.73    \nframe=  140 fps=0.4 q=31.9 size=    2048KiB time=00:00:04.60 bitrate=3647.3kbits/s speed=0.0136x elapsed=0:05:38.26    \nframe=  141 fps=0.4 q=32.0 size=    2304KiB time=00:00:04.63 bitrate=4073.7kbits/s speed=0.0137x elapsed=0:05:38.81    \nframe=  141 fps=0.4 q=32.0 size=    2304KiB time=00:00:04.63 bitrate=4073.7kbits/s speed=0.0137x elapsed=0:05:39.34    \nframe=  141 fps=0.4 q=32.0 size=    2304KiB time=00:00:04.63 bitrate=4073.7kbits/s speed=0.0136x elapsed=0:05:39.89    \nframe=  142 fps=0.4 q=27.6 size=    2304KiB time=00:00:04.66 bitrate=4044.6kbits/s speed=0.0137x elapsed=0:05:40.50    \nframe=  142 fps=0.4 q=27.6 size=    2304KiB time=00:00:04.66 bitrate=4044.6kbits/s speed=0.0137x elapsed=0:05:41.06    \nframe=  142 fps=0.4 q=27.6 size=    2304KiB time=00:00:04.66 bitrate=4044.6kbits/s speed=0.0137x elapsed=0:05:41.58    \nframe=  142 fps=0.4 q=27.6 size=    2304KiB time=00:00:04.66 bitrate=4044.6kbits/s speed=0.0136x elapsed=0:05:42.10    \nframe=  143 fps=0.4 q=29.7 size=    2304KiB time=00:00:04.70 bitrate=4015.9kbits/s speed=0.0137x elapsed=0:05:42.62    \nframe=  143 fps=0.4 q=29.7 size=    2304KiB time=00:00:04.70 bitrate=4015.9kbits/s speed=0.0137x elapsed=0:05:43.15    \nframe=  143 fps=0.4 q=29.7 size=    2304KiB time=00:00:04.70 bitrate=4015.9kbits/s speed=0.0137x elapsed=0:05:43.67    \nframe=  143 fps=0.4 q=29.7 size=    2304KiB time=00:00:04.70 bitrate=4015.9kbits/s speed=0.0137x elapsed=0:05:44.24    \nframe=  143 fps=0.4 q=29.7 size=    2304KiB time=00:00:04.70 bitrate=4015.9kbits/s speed=0.0136x elapsed=0:05:44.82    \nframe=  143 fps=0.4 q=29.7 size=    2304KiB time=00:00:04.70 bitrate=4015.9kbits/s speed=0.0136x elapsed=0:05:45.36    \nframe=  143 fps=0.4 q=29.7 size=    2304KiB time=00:00:04.70 bitrate=4015.9kbits/s speed=0.0136x elapsed=0:05:45.96    \nframe=  144 fps=0.4 q=32.1 size=    2304KiB time=00:00:04.73 bitrate=3987.6kbits/s speed=0.0137x elapsed=0:05:46.52    \nframe=  145 fps=0.4 q=32.2 size=    2304KiB time=00:00:04.76 bitrate=3959.7kbits/s speed=0.0137x elapsed=0:05:47.05    \nframe=  145 fps=0.4 q=32.2 size=    2304KiB time=00:00:04.76 bitrate=3959.7kbits/s speed=0.0137x elapsed=0:05:47.58    \nframe=  145 fps=0.4 q=32.2 size=    2304KiB time=00:00:04.76 bitrate=3959.7kbits/s speed=0.0137x elapsed=0:05:48.12    \nframe=  146 fps=0.4 q=32.0 size=    2304KiB time=00:00:04.80 bitrate=3932.2kbits/s speed=0.0138x elapsed=0:05:48.65    \nframe=  146 fps=0.4 q=32.0 size=    2304KiB time=00:00:04.80 bitrate=3932.2kbits/s speed=0.0137x elapsed=0:05:49.21    \nframe=  146 fps=0.4 q=32.0 size=    2304KiB time=00:00:04.80 bitrate=3932.2kbits/s speed=0.0137x elapsed=0:05:49.74    \nframe=  146 fps=0.4 q=32.0 size=    2304KiB time=00:00:04.80 bitrate=3932.2kbits/s speed=0.0137x elapsed=0:05:50.28    \nframe=  146 fps=0.4 q=32.0 size=    2304KiB time=00:00:04.80 bitrate=3932.2kbits/s speed=0.0137x elapsed=0:05:50.82    \nframe=  146 fps=0.4 q=32.0 size=    2304KiB time=00:00:04.80 bitrate=3932.2kbits/s speed=0.0137x elapsed=0:05:51.35    \nframe=  146 fps=0.4 q=32.0 size=    2304KiB time=00:00:04.80 bitrate=3932.2kbits/s speed=0.0136x elapsed=0:05:51.92    \nframe=  146 fps=0.4 q=32.0 size=    2304KiB time=00:00:04.80 bitrate=3932.2kbits/s speed=0.0136x elapsed=0:05:52.46    \nframe=  146 fps=0.4 q=32.0 size=    2304KiB time=00:00:04.80 bitrate=3932.2kbits/s speed=0.0136x elapsed=0:05:53.02    \nframe=  146 fps=0.4 q=32.0 size=    2304KiB time=00:00:04.80 bitrate=3932.2kbits/s speed=0.0136x elapsed=0:05:53.57    \nframe=  146 fps=0.4 q=32.0 size=    2304KiB time=00:00:04.80 bitrate=3932.2kbits/s speed=0.0136x elapsed=0:05:54.10    \nframe=  146 fps=0.4 q=32.0 size=    2304KiB time=00:00:04.80 bitrate=3932.2kbits/s speed=0.0135x elapsed=0:05:54.64    \nframe=  146 fps=0.4 q=32.0 size=    2304KiB time=00:00:04.80 bitrate=3932.2kbits/s speed=0.0135x elapsed=0:05:55.19    \nframe=  147 fps=0.4 q=29.3 size=    2304KiB time=00:00:04.83 bitrate=3905.1kbits/s speed=0.0136x elapsed=0:05:55.73    \nframe=  147 fps=0.4 q=29.3 size=    2304KiB time=00:00:04.83 bitrate=3905.1kbits/s speed=0.0136x elapsed=0:05:56.28    \nframe=  147 fps=0.4 q=29.3 size=    2304KiB time=00:00:04.83 bitrate=3905.1kbits/s speed=0.0135x elapsed=0:05:56.82    \nframe=  147 fps=0.4 q=29.3 size=    2304KiB time=00:00:04.83 bitrate=3905.1kbits/s speed=0.0135x elapsed=0:05:57.36    \nframe=  147 fps=0.4 q=29.3 size=    2304KiB time=00:00:04.83 bitrate=3905.1kbits/s speed=0.0135x elapsed=0:05:57.87    \nframe=  147 fps=0.4 q=29.3 size=    2304KiB time=00:00:04.83 bitrate=3905.1kbits/s speed=0.0135x elapsed=0:05:58.46    \nframe=  148 fps=0.4 q=29.7 size=    2304KiB time=00:00:04.86 bitrate=3878.4kbits/s speed=0.0136x elapsed=0:05:59.04    \nframe=  149 fps=0.4 q=32.2 size=    2304KiB time=00:00:04.90 bitrate=3852.0kbits/s speed=0.0136x elapsed=0:05:59.62    \n[mp4 @ 00000258eeb4c680] Starting second pass: moving the moov atom to the beginning of the file\n[out#0/mp4 @ 00000258eeb4c580] video:2437KiB audio:0KiB subtitle:0KiB other streams:0KiB global headers:2KiB muxing overhead: 0.213477%\nframe=  150 fps=0.4 q=31.6 Lsize=    2443KiB time=00:00:04.93 bitrate=4055.9kbits/s speed=0.0137x elapsed=0:06:00.07    \nx265 [info]: frame I:      1, Avg QP:29.61  kb/s: 8601.36 \nx265 [info]: frame P:     42, Avg QP:27.35  kb/s: 6773.91 \nx265 [info]: frame B:    107, Avg QP:30.77  kb/s: 2857.44 \nx265 [info]: Weighted P-Frames: Y:11.9% UV:9.5%\n\nencoded 150 frames in 359.93s (0.42 fps), 3992.34 kb/s, Avg QP:29.80\n",
  "seconds": 360.9913499355316,
  "probe_out": {}
}